<svg aria-hidden="true" style="position: absolute; width: 0; height: 0; overflow: hidden;" version="1.1" xmlns="http://www.w3.org/2000/svg" xmlns:xlink="http://www.w3.org/1999/xlink">
<defs>
<symbol id="antena" viewBox="0 0 32 32">
<path fill="#f5f4fa" style="fill: var(--color1, #f5f4fa)" d="M0.474 8.889h31.052c0.262 0 0.474 0.212 0.474 0.474v13.274c0 0.262-0.212 0.474-0.474 0.474h-31.052c-0.262 0-0.474-0.212-0.474-0.474v-13.274c0-0.262 0.212-0.474 0.474-0.474z"></path>
<path fill="#212121" style="fill: var(--color2, #212121)" d="M19.83 17.581l-2.189-2.205 0.243-1.197c0.058 0.023 0.126 0.037 0.196 0.038h0.002c0.002 0 0.004 0 0.007 0 0.309 0 0.56-0.251 0.56-0.56s-0.251-0.56-0.56-0.56c-0.309 0-0.56 0.251-0.56 0.56 0 0.067 0.012 0.132 0.034 0.191l-0.001-0.004-1.286 0.157-2.098-2.109c-0.025-0.025-0.059-0.041-0.098-0.041h-0c-0.036 0-0.071 0.015-0.097 0.040l-0.392 0.39c-0.025 0.025-0.041 0.060-0.041 0.098s0.015 0.073 0.041 0.098v0l0.211 0.214c-0.817 1.503-0.552 3.365 0.653 4.579 0.011 0.011 0.024 0.019 0.038 0.025-0.008 0.043-0.013 0.092-0.014 0.142v1.604h-1.659c-0.382 0-0.691 0.31-0.691 0.691v0.277c0 0.076 0.062 0.138 0.138 0.138h6.361c0.076 0 0.138-0.062 0.138-0.138v-0.276c-0-0.382-0.31-0.691-0.691-0.691h-1.659v-0.711c0.26 0.055 0.525 0.082 0.79 0.083 0.669-0.001 1.297-0.172 1.845-0.472l-0.020 0.010 0.212 0.213c0.026 0.026 0.061 0.041 0.098 0.041 0.038-0 0.072-0.016 0.097-0.040v0l0.392-0.39c0.025-0.025 0.041-0.060 0.041-0.098s-0.015-0.073-0.041-0.098v0zM17.887 13.468c0.050-0.050 0.119-0.080 0.195-0.080 0.153 0 0.276 0.124 0.276 0.276s-0.124 0.276-0.276 0.276h-0.001c-0.152-0.001-0.275-0.124-0.275-0.277 0-0.077 0.031-0.146 0.081-0.196v0h-0zM17.562 14.376l-0.155 0.764-0.305-0.307 0.46-0.457zM17.405 14.143l-0.498 0.495-0.385-0.387 0.883-0.108zM18.075 19.319c0.229 0 0.415 0.186 0.415 0.415v0 0.138h-6.084v-0.138c0-0.229 0.186-0.415 0.415-0.415v0h5.254zM16.139 18.765v0.277h-1.383v-0.277h1.383zM14.757 18.489v-1.051c0-0.335 0.31-0.608 0.691-0.608s0.691 0.273 0.691 0.608v1.051h-1.383zM16.416 18.049v-0.611c0-0.488-0.434-0.885-0.968-0.885-0.004-0-0.010-0-0.015-0-0.351 0-0.659 0.183-0.833 0.459l-0.002 0.004c-0.612-0.643-0.988-1.516-0.988-2.476 0-0.6 0.147-1.166 0.407-1.663l-0.009 0.020 4.823 4.85c-0.473 0.245-1.032 0.389-1.625 0.389-0.28 0-0.552-0.032-0.813-0.093l0.024 0.005zM19.343 17.872l-5.459-5.491 0.196-0.195 2.057 2.069c0.001 0 0.002 0.002 0.003 0.002l3.4 3.42-0.196 0.195z"></path>
<path fill="#2196f3" style="fill: var(--color3, #2196f3)" d="M15.449 17.106h-0.001c-0 0-0 0-0.001 0-0.229 0-0.415 0.186-0.415 0.415s0.185 0.414 0.414 0.415h0.001c0 0 0 0 0.001 0 0.229 0 0.415-0.186 0.415-0.415s-0.185-0.414-0.414-0.415h-0zM15.546 17.619c-0.025 0.025-0.059 0.040-0.097 0.040-0.076 0-0.138-0.062-0.138-0.138 0-0.038 0.016-0.073 0.041-0.098v0c0.026-0.026 0.060-0.040 0.097-0.040 0.076 0 0.138 0.062 0.138 0.138 0 0.038-0.016 0.073-0.041 0.098v0h0.001z"></path>
</symbol>
<symbol id="astronaut" viewBox="0 0 32 32">
<path fill="#f5f4fa" style="fill: var(--color1, #f5f4fa)" d="M0.474 8.889h31.052c0.262 0 0.474 0.212 0.474 0.474v13.274c0 0.262-0.212 0.474-0.474 0.474h-31.052c-0.262 0-0.474-0.212-0.474-0.474v-13.274c0-0.262 0.212-0.474 0.474-0.474z"></path>
<path fill="#2196f3" style="fill: var(--color3, #2196f3)" d="M20.141 13.025c-0.016-0.050-0.059-0.086-0.111-0.094l-0.001-0-0.495-0.072-0.222-0.449c-0.046-0.095-0.201-0.095-0.248 0l-0.222 0.449-0.495 0.072c-0.067 0.010-0.119 0.067-0.119 0.137 0 0.039 0.016 0.074 0.042 0.099l0 0 0.359 0.349-0.085 0.493c-0.009 0.052 0.012 0.104 0.055 0.135s0.099 0.035 0.146 0.011l0.443-0.233 0.443 0.233c0.019 0.010 0.041 0.016 0.064 0.016 0.031 0 0.059-0.010 0.082-0.027l-0 0c0.043-0.031 0.064-0.083 0.055-0.135l-0.085-0.493 0.359-0.35c0.026-0.025 0.042-0.060 0.042-0.099 0-0.015-0.002-0.030-0.007-0.044l0 0.001zM19.503 13.369c-0.026 0.025-0.042 0.060-0.042 0.099 0 0.008 0.001 0.016 0.002 0.024l-0-0.001 0.049 0.289-0.259-0.136c-0.019-0.010-0.041-0.016-0.064-0.016s-0.046 0.006-0.065 0.016l0.001-0-0.259 0.136 0.049-0.289c0.001-0.007 0.002-0.015 0.002-0.024 0-0.039-0.016-0.074-0.042-0.099l-0-0-0.21-0.205 0.29-0.042c0.045-0.007 0.084-0.035 0.104-0.076l0.13-0.263 0.13 0.263c0.020 0.041 0.059 0.069 0.104 0.076l0.29 0.042-0.21 0.205zM18.627 17.172h-0.276v0.277h0.276v-0.277zM18.627 17.726h-0.276v0.276h0.276v-0.276zM18.904 17.449h-0.276v0.276h0.276v-0.276zM18.351 17.449h-0.277v0.276h0.277v-0.276zM17.659 18.693h-0.276v0.276h0.276v-0.276zM17.659 19.247h-0.276v0.276h0.276v-0.276zM17.936 18.97h-0.277v0.276h0.277v-0.277zM17.383 18.97h-0.277v0.276h0.277v-0.277zM16 18.14h-0.277v0.276h0.277v-0.277zM16 18.693h-0.277v0.276h0.277v-0.276zM16.276 18.417h-0.277v0.277h0.277v-0.277zM15.723 18.417h-0.277v0.277h0.277v-0.277zM13.373 13.439h-0.277v0.277h0.277v-0.277zM13.373 13.992h-0.277v0.277h0.277v-0.276zM13.649 13.716h-0.277v0.277h0.277v-0.277zM13.096 13.716h-0.277v0.277h0.277v-0.277z"></path>
<path fill="#212121" style="fill: var(--color2, #212121)" d="M18.259 15.523c-0.073-0.098-0.181-0.165-0.306-0.182l-0.002-0c-0.020-0.003-0.043-0.005-0.066-0.005-0.106 0-0.204 0.036-0.283 0.097l0.001-0.001-0.325 0.249-0.492 0.367-0.352-0.14c0.628-0.282 1.067-0.909 1.067-1.639 0-0.991-0.81-1.798-1.805-1.798s-1.805 0.806-1.805 1.798c0 0.359 0.107 0.693 0.29 0.974l-0.718-0.006c-0.002 0-0.004 0.001-0.006 0.001-0.015 0.001-0.028 0.004-0.041 0.008l0.001-0c-0.003 0.001-0.007 0.002-0.010 0.003-0.002 0.001-0.003 0.001-0.005 0.002l-0.838 0.414c-0 0-0 0-0 0l-0.491 0.236c-0.006 0.003-0.012 0.006-0.017 0.009l0-0c-0.125 0.084-0.206 0.225-0.206 0.384 0 0.077 0.019 0.149 0.052 0.213l-0.001-0.003c0.057 0.11 0.154 0.192 0.271 0.23l0.003 0.001c0.042 0.014 0.090 0.022 0.139 0.022 0.080 0 0.155-0.020 0.221-0.056l-0.002 0.001 0.36-0.191 0.587-0.303 0.352-0.002-1.758 1.75c-0.078 0.078-0.127 0.185-0.127 0.304 0 0 0 0.001 0 0.001v-0c0 0 0 0.001 0 0.001 0 0.119 0.049 0.227 0.127 0.305l0 0c0.078 0.078 0.186 0.126 0.305 0.126 0 0 0.001 0 0.001 0h-0c0.111 0 0.222-0.042 0.306-0.126l0.341-0.339 0.451-0.337 0.233 0.233-0.804 0.801c-0.079 0.078-0.127 0.185-0.127 0.304 0 0 0 0.001 0 0.001v-0c0.001 0.238 0.194 0.431 0.432 0.431 0 0 0 0 0.001 0h-0c0.111 0 0.222-0.042 0.306-0.126l1.164-1.159c0.002-0.002 0.004-0.002 0.006-0.004l1.339-1.467 0.9 0.128c0.007 0.001 0.013 0.001 0.020 0.001 0.017 0 0.033-0.004 0.048-0.010 0.005-0.002 0.009-0.004 0.013-0.006s0.010-0.004 0.015-0.007l0.833-0.553c0.003-0.002 0.005-0.005 0.008-0.008s0.007-0.004 0.011-0.007l0.33-0.309c0.090-0.084 0.146-0.204 0.146-0.337 0-0.104-0.034-0.2-0.092-0.277l0.001 0.001zM12.404 16.459c-0.025 0.014-0.056 0.022-0.088 0.022-0.020 0-0.040-0.003-0.058-0.009l0.001 0c-0.077-0.024-0.131-0.094-0.131-0.177 0-0.061 0.030-0.116 0.075-0.149l0.001-0 0.341-0.164 0.082 0.24 0.034 0.101-0.257 0.137zM13.311 15.985l-0.401 0.207-0.066-0.194-0.048-0.139 0.525-0.259-0.010 0.385zM17.225 14.269c0 0.238-0.057 0.463-0.155 0.664l-1.084-0.492c-0.011-0.149-0.089-0.278-0.203-0.359l-0.002-0.001 0.38-1.26c0.617 0.196 1.064 0.771 1.064 1.449zM14.169 14.269c0-0.839 0.685-1.521 1.528-1.521 0.066 0 0.13 0.006 0.193 0.014l-0.371 1.232c-0.005 0-0.010-0.001-0.015-0.001-0.268 0-0.486 0.217-0.486 0.484s0.218 0.484 0.486 0.484c0.18 0 0.336-0.099 0.419-0.245l1.001 0.455c-0.279 0.375-0.724 0.62-1.228 0.62-0.843 0-1.528-0.682-1.528-1.521zM15.713 14.476c0 0.114-0.094 0.207-0.209 0.207-0 0-0 0-0 0-0.115 0-0.208-0.093-0.208-0.207v-0c0-0.114 0.094-0.207 0.209-0.207s0.209 0.093 0.209 0.207zM12.491 18.371c-0.028 0.028-0.068 0.046-0.111 0.046s-0.082-0.017-0.111-0.045l0 0c-0.028-0.028-0.046-0.067-0.046-0.109s0.018-0.082 0.046-0.109l0-0 0.249-0.249 0.221 0.22-0.249 0.247zM13.324 19.339c-0.028 0.028-0.068 0.046-0.111 0.046s-0.082-0.017-0.111-0.045l0 0c-0.028-0.028-0.046-0.067-0.046-0.109s0.018-0.081 0.046-0.109h0l0.25-0.249 0.221 0.22-0.249 0.248zM14.227 18.44l-0 0-0.458 0.456-0.221-0.22 0.458-0.455c0.010-0.010 0.017-0.023 0.023-0.035 0.002-0.004 0.005-0.007 0.007-0.010 0.004-0.011 0.005-0.022 0.007-0.033 0.001-0.006 0.004-0.012 0.004-0.019 0-0.009-0.003-0.018-0.005-0.027s-0.002-0.017-0.005-0.025c-0.006-0.014-0.014-0.025-0.024-0.036l0 0c-0.003-0.003-0.004-0.007-0.007-0.010h-0l-0-0-0.417-0.415c-0.004-0.005-0.010-0.006-0.015-0.010-0.007-0.005-0.014-0.010-0.022-0.015l-0.001-0c-0.007-0.003-0.015-0.006-0.023-0.008l-0.001-0c-0.008-0.002-0.017-0.004-0.026-0.005l-0.001-0c-0.002-0-0.004-0-0.006-0-0.007 0-0.013 0-0.019 0.001l0.001-0c-0.010 0.001-0.019 0.003-0.028 0.006l0.001-0c-0.009 0.003-0.016 0.007-0.024 0.012-0.005 0.003-0.011 0.004-0.016 0.007l-0.46 0.343-0.233-0.233 0.622-0.619 1.13 1.112-0.24 0.238zM15.995 16.621c-0.004-0-0.008 0.001-0.012 0.001-0.002-0-0.005-0-0.007-0-0.016 0-0.032 0.003-0.047 0.008l0.001-0c-0.010 0.003-0.018 0.008-0.025 0.012l0.001-0c-0.008 0.005-0.015 0.010-0.022 0.016l0-0c-0.003 0.003-0.007 0.004-0.010 0.008l-1.218 1.334-1.122-1.104 0.734-0.731c0.025-0.025 0.041-0.060 0.041-0.098 0-0.076-0.062-0.138-0.138-0.138-0 0-0 0-0.001 0h0l-0.575 0.003 0.007-0.417 0.805 0.007c0.328 0.336 0.785 0.545 1.291 0.545 0 0 0.001 0 0.001 0h-0c0.113 0 0.224-0.012 0.332-0.032 0.010 0.008 0.021 0.017 0.034 0.022l0.625 0.249 0.039 0.197 0.046 0.23-0.779-0.111zM17.042 16.667l-0.081-0.404 0.375-0.28 0.098 0.13 0.147 0.195-0.539 0.358zM18.015 15.933l-0.217 0.204-0.241-0.32 0.215-0.165c0.040-0.031 0.091-0.044 0.141-0.037s0.094 0.033 0.124 0.074c0.023 0.030 0.037 0.069 0.037 0.11 0 0.053-0.023 0.101-0.059 0.135l-0 0z"></path>
<path fill="#212121" style="fill: var(--color2, #212121)" d="M15.378 16.66l-0.556-0.553c-0.025-0.025-0.059-0.040-0.098-0.040s-0.073 0.015-0.098 0.040v0l-0.556 0.553c-0.026 0.026-0.041 0.061-0.041 0.098s0.014 0.072 0.041 0.098l0.556 0.553c0.025 0.025 0.059 0.040 0.098 0.040s0.073-0.015 0.098-0.040v0l0.556-0.553c0.025-0.025 0.041-0.060 0.041-0.098s-0.016-0.073-0.041-0.098v0zM14.725 17.116l-0.359-0.358 0.359-0.358 0.36 0.358-0.36 0.358zM16.302 13.166l-0.067 0.269c0.018 0.005 0.451 0.117 0.451 0.557h0.277c0-0.523-0.432-0.769-0.66-0.826zM16.962 14.269h-0.277v0.277h0.277v-0.277z"></path>
</symbol>
<symbol id="Client1" viewBox="0 0 32 32">
<path fill="#afb1b8" style="fill: var(--color4, #afb1b8)" d="M13.176 11.671l1.319 1.249-2.449-0.002v6.059h6.4v-2.317l1.318 1.247v-6.237h-6.588zM18.389 16.514l-3.74-3.541h3.74v3.541zM17.228 18.090h-4.168v-4.075h0.295v3.799h3.873v0.276zM14.044 19.784l-0.154 0.317-0.154-0.317h-0.129l0.225 0.423v0.246h0.117v-0.246l0.224-0.423h-0.129zM14.238 20.453l0.054-0.156h0.259l0.055 0.156h0.121l-0.253-0.669h-0.104l-0.253 0.669h0.121zM14.421 19.926l0.097 0.277h-0.194l0.097-0.278zM15.035 20.187c-0.016 0.024-0.025 0.053-0.025 0.084 0 0 0 0.001 0 0.001v-0c0 0.056 0.020 0.102 0.059 0.137s0.093 0.053 0.159 0.053c0.066 0 0.123-0.018 0.171-0.054l0.038 0.045h0.13l-0.098-0.116c0.039-0.053 0.058-0.12 0.058-0.203h-0.097c0 0.045-0.009 0.086-0.028 0.123l-0.129-0.152 0.046-0.033c0.028-0.019 0.051-0.042 0.069-0.069l0.001-0.001c0.013-0.022 0.021-0.048 0.021-0.076 0-0 0-0.001 0-0.001v0c0-0.001 0-0.002 0-0.003 0-0.041-0.018-0.078-0.047-0.103l-0-0c-0.030-0.027-0.069-0.043-0.113-0.043-0.002 0-0.005 0-0.007 0h0c-0.054 0-0.097 0.015-0.129 0.046s-0.048 0.072-0.048 0.124c0 0.021 0.005 0.044 0.015 0.067s0.029 0.051 0.055 0.084c-0.050 0.036-0.083 0.066-0.1 0.092zM15.336 20.335c-0.029 0.023-0.065 0.037-0.106 0.038h-0c-0.002 0-0.004 0-0.005 0-0.029 0-0.055-0.011-0.075-0.029l0 0c-0.019-0.018-0.030-0.044-0.030-0.072 0-0.001 0-0.003 0-0.004v0c0-0.036 0.018-0.068 0.055-0.096l0.014-0.010 0.146 0.172zM15.217 20.039c-0.032-0.039-0.047-0.071-0.047-0.097 0-0.022 0.007-0.041 0.019-0.056 0.012-0.014 0.030-0.022 0.049-0.022 0.001 0 0.002 0 0.003 0h-0c0.001-0 0.002-0 0.002-0 0.018 0 0.035 0.007 0.048 0.019l-0-0c0.013 0.012 0.020 0.027 0.020 0.045 0 0.001 0 0.001 0 0.002 0 0.025-0.011 0.047-0.028 0.062l-0 0-0.014 0.012-0.051 0.035zM16.306 20.402c0.046-0.040 0.072-0.096 0.079-0.167h-0.116c-0.006 0.048-0.021 0.082-0.044 0.102s-0.057 0.031-0.103 0.031c-0.050 0-0.088-0.019-0.114-0.057s-0.039-0.093-0.039-0.166v-0.059c0.001-0.072 0.014-0.125 0.041-0.162s0.066-0.056 0.117-0.056c0.043 0 0.076 0.011 0.099 0.032s0.037 0.056 0.042 0.104h0.116c-0.008-0.073-0.034-0.13-0.079-0.17s-0.104-0.060-0.178-0.060c-0.055 0-0.103 0.013-0.145 0.039s-0.075 0.065-0.095 0.109l-0.001 0.002c-0.021 0.047-0.034 0.102-0.034 0.159 0 0.003 0 0.006 0 0.008v-0 0.063c0.001 0.062 0.012 0.116 0.034 0.162s0.053 0.082 0.094 0.108c0.041 0.025 0.088 0.038 0.141 0.038 0.076 0 0.137-0.020 0.183-0.060zM16.989 20.308c0.023-0.049 0.034-0.107 0.034-0.173v-0.037c0-0.002 0-0.005 0-0.007 0-0.059-0.013-0.116-0.036-0.167l0.001 0.003c-0.021-0.047-0.055-0.086-0.097-0.112l-0.001-0.001c-0.042-0.026-0.090-0.040-0.145-0.040s-0.103 0.013-0.145 0.040c-0.042 0.026-0.075 0.064-0.098 0.114-0.022 0.048-0.035 0.105-0.035 0.165 0 0.003 0 0.006 0 0.009v-0 0.038c0 0.064 0.012 0.12 0.035 0.169s0.056 0.087 0.098 0.114c0.043 0.026 0.091 0.040 0.145 0.040s0.103-0.013 0.145-0.040c0.042-0.027 0.075-0.065 0.097-0.114zM16.865 19.93c0.028 0.040 0.042 0.097 0.042 0.171v0.035c0 0.075-0.014 0.133-0.042 0.172s-0.067 0.059-0.119 0.059c-0.001 0-0.003 0-0.005 0-0.047 0-0.089-0.024-0.114-0.060l-0-0c-0.029-0.040-0.043-0.097-0.043-0.171v-0.039c0.001-0.072 0.015-0.128 0.043-0.167 0.025-0.036 0.066-0.059 0.113-0.059 0.002 0 0.003 0 0.005 0h-0c0.051 0 0.091 0.020 0.119 0.059z"></path>
</symbol>
<symbol id="Client2" viewBox="0 0 32 32">
<path fill="#afb1b8" style="fill: var(--color4, #afb1b8)" d="M15.481 10.954h-0.025c-0.031-0.002-0.071-0.003-0.11-0.004l-0.003-0h-0.082c-0.071 0-0.144 0.002-0.216 0.005-0.002-0-0.005-0-0.008-0s-0.006 0-0.009 0l0-0c-0.694 0.040-1.338 0.214-1.921 0.496l0.030-0.013-0.078 0.037v3.981l0.182-0.062c0.16-0.055 0.33-0.104 0.506-0.15 0.435-0.116 0.935-0.186 1.451-0.193l0.004-0v0.523c-0.065 0-0.128 0.002-0.191 0.005h-0.015c-0.409 0.023-0.792 0.084-1.16 0.181l0.040-0.009c-0.507 0.129-0.951 0.307-1.363 0.535l0.029-0.015v-5.105c0.403-0.239 0.869-0.435 1.363-0.561l0.037-0.008c0.395-0.106 0.849-0.168 1.318-0.17h0.078c0.092 0.002 0.182 0.006 0.266 0.013 0.222 0.016 0.442 0.051 0.657 0.105v0.515c-0.183-0.045-0.401-0.079-0.623-0.095l-0.013-0.001-0.013-0.001c-0.038-0.004-0.083-0.007-0.129-0.008l-0.001-0zM16.387 11.481c0.114 0.009 0.232 0.013 0.352 0.013 0.494-0.002 0.971-0.067 1.426-0.187l-0.039 0.009c0.507-0.129 0.95-0.307 1.363-0.535l-0.029 0.015v5.014c-0.403 0.239-0.869 0.434-1.363 0.561l-0.037 0.008c-0.395 0.106-0.849 0.168-1.318 0.17h-0.001c-0.010 0-0.021 0-0.032 0-0.344 0-0.677-0.043-0.996-0.124l0.028 0.006v-5.047c0.077 0.018 0.157 0.034 0.238 0.048 0.133 0.022 0.273 0.039 0.409 0.049zM18.939 11.519l-0.182 0.061c-0.167 0.056-0.336 0.107-0.506 0.151-0.453 0.121-0.973 0.192-1.51 0.194h-0.001c-0.119 0-0.228-0.003-0.333-0.010l-0.145-0.010v4.095l0.125 0.011c0.115 0.010 0.235 0.015 0.355 0.015 0.424-0.002 0.833-0.058 1.224-0.162l-0.034 0.008c0.357-0.091 0.666-0.205 0.96-0.347l-0.030 0.013 0.078-0.037v-3.982z"></path>
<path fill="#afb1b8" style="fill: var(--color4, #afb1b8)" d="M12.897 18.016c-0.049-0.051-0.117-0.082-0.193-0.082-0.003 0-0.007 0-0.010 0h0c-0.001-0-0.003-0-0.004-0-0.041 0-0.079 0.008-0.115 0.023l0.002-0.001c-0.069 0.028-0.123 0.082-0.149 0.15l-0.001 0.002c-0.014 0.036-0.021 0.074-0.021 0.113v0.682c-0.002 0.048 0.008 0.096 0.027 0.14 0.016 0.035 0.039 0.066 0.068 0.091 0.027 0.023 0.059 0.040 0.093 0.049 0.033 0.009 0.068 0.014 0.102 0.014 0.038 0 0.075-0.008 0.11-0.024 0.102-0.046 0.172-0.146 0.173-0.263v0-0.076h-0.179v0.061c0 0.001 0 0.003 0 0.004 0 0.020-0.004 0.040-0.011 0.058l0-0.001c-0.006 0.015-0.015 0.028-0.026 0.038l-0 0c-0.020 0.016-0.046 0.026-0.075 0.026h-0c-0.003 0-0.007 0.001-0.010 0.001-0.030 0-0.057-0.015-0.073-0.037l-0-0c-0.015-0.024-0.024-0.053-0.024-0.084 0-0.002 0-0.005 0-0.007v0-0.636c-0.001-0.035 0.006-0.070 0.022-0.102 0.016-0.025 0.045-0.042 0.077-0.042 0.004 0 0.007 0 0.011 0.001l-0-0c0.001-0 0.002-0 0.003-0 0.031 0 0.059 0.015 0.076 0.038l0 0c0.018 0.024 0.030 0.055 0.030 0.088 0 0.001-0 0.003-0 0.004v-0 0.059h0.177v-0.070c0-0.001 0-0.002 0-0.003 0-0.042-0.008-0.082-0.023-0.119l0.001 0.002c-0.014-0.037-0.034-0.069-0.060-0.096l0 0zM13.956 18.008c-0.054-0.046-0.125-0.075-0.203-0.075h-0c-0.036 0-0.072 0.007-0.106 0.019-0.074 0.026-0.132 0.081-0.163 0.149l-0.001 0.002c-0.018 0.042-0.027 0.087-0.026 0.132v0.654c-0.001 0.046 0.008 0.092 0.026 0.134 0.016 0.035 0.040 0.066 0.069 0.091 0.027 0.025 0.059 0.045 0.094 0.058s0.070 0.019 0.106 0.019c0.078-0 0.149-0.029 0.203-0.077l-0 0c0.028-0.026 0.051-0.057 0.067-0.091 0.018-0.042 0.027-0.088 0.026-0.134v-0.654c0-0.002 0-0.004 0-0.006 0-0.046-0.010-0.089-0.027-0.128l0.001 0.002c-0.017-0.037-0.039-0.069-0.067-0.096l-0-0zM13.873 18.89c0 0.003 0 0.007 0 0.010 0 0.033-0.014 0.063-0.036 0.085l-0 0c-0.023 0.019-0.052 0.031-0.084 0.031s-0.061-0.012-0.084-0.031l0 0c-0.022-0.021-0.036-0.051-0.036-0.084 0-0.004 0-0.007 0.001-0.011l-0 0v-0.654c-0-0.003-0-0.007-0-0.010 0-0.033 0.014-0.063 0.036-0.084l0-0c0.023-0.019 0.052-0.031 0.084-0.031s0.061 0.012 0.084 0.031l-0-0c0.022 0.021 0.036 0.051 0.036 0.084 0 0.004-0 0.007-0 0.011l0-0v0.654zM15.347 19.182v-1.239h-0.171l-0.225 0.656h-0.003l-0.227-0.655h-0.17v1.238h0.177v-0.753h0.003l0.173 0.532h0.088l0.175-0.532h0.003v0.753h0.177zM16.352 18.030c-0.027-0.031-0.062-0.054-0.1-0.068-0.036-0.012-0.078-0.019-0.122-0.019-0.002 0-0.005 0-0.007 0h-0.263v1.239h0.176v-0.484h0.091c0.055 0.003 0.11-0.009 0.159-0.034 0.040-0.023 0.073-0.055 0.096-0.094l0.001-0.001c0.020-0.033 0.034-0.070 0.040-0.108s0.010-0.084 0.010-0.13c0-0.004-0-0.008-0-0.012v0.001c0.002-0.059-0.004-0.119-0.017-0.177-0.012-0.045-0.035-0.083-0.065-0.114l0 0zM16.261 18.408c-0.001 0.024-0.007 0.046-0.017 0.065l0-0.001c-0.010 0.019-0.026 0.034-0.045 0.043l-0.001 0c-0.022 0.010-0.047 0.016-0.074 0.016-0.003 0-0.006-0-0.010-0l0 0h-0.081v-0.421h0.091c0.003-0 0.006-0 0.009-0 0.026 0 0.050 0.006 0.072 0.016l-0.001-0c0.018 0.011 0.032 0.026 0.041 0.045l0 0.001c0.010 0.022 0.015 0.045 0.015 0.069v0.082c0 0.029 0.002 0.059 0 0.085h-0.002zM17.188 17.943h-0.145l-0.273 1.239h0.177l0.052-0.266h0.241l0.052 0.266h0.176l-0.28-1.239zM17.025 18.747l0.087-0.449h0.003l0.086 0.449h-0.176zM18.328 18.689h-0.003l-0.266-0.746h-0.17v1.239h0.177v-0.745h0.004l0.27 0.745h0.166v-1.238h-0.176v0.746zM19.406 17.943l-0.142 0.493h-0.004l-0.142-0.493h-0.187l0.242 0.715v0.523h0.177v-0.523l0.242-0.715h-0.187zM12.405 19.532h0.085v0.239h0.058v-0.239h0.085v-0.049h-0.227v0.049zM13.119 19.483l-0.111 0.288h0.061l0.024-0.065h0.115l0.024 0.065h0.063l-0.114-0.288h-0.061zM13.11 19.656l0.039-0.107 0.039 0.107h-0.078zM13.826 19.664h0.067v0.037c-0.019 0.015-0.042 0.024-0.068 0.024h-0c-0.001 0-0.003 0-0.004 0-0.023 0-0.044-0.011-0.057-0.027l-0-0c-0.013-0.019-0.021-0.043-0.021-0.069 0-0.002 0-0.005 0-0.007v0c0-0.064 0.028-0.096 0.083-0.096 0.002-0 0.004-0 0.006-0 0.028 0 0.052 0.019 0.059 0.046l0 0 0.057-0.011c-0.012-0.056-0.053-0.084-0.122-0.084-0.001-0-0.003-0-0.004-0-0.037 0-0.071 0.014-0.097 0.037l0-0c-0.026 0.025-0.042 0.061-0.042 0.1 0 0.004 0 0.008 0 0.011l-0-0c-0 0.002-0 0.004-0 0.007 0 0.039 0.014 0.074 0.037 0.101l-0-0c0.025 0.026 0.061 0.042 0.1 0.042 0.003 0 0.006-0 0.009-0l-0 0c0.001 0 0.003 0 0.005 0 0.045 0 0.086-0.017 0.117-0.046l-0 0v-0.113h-0.125v0.049zM14.548 19.483h-0.058v0.288h0.201v-0.049h-0.143v-0.239zM15.158 19.483h-0.058v0.288h0.058v-0.288zM15.755 19.675l-0.118-0.192h-0.056v0.288h0.054v-0.188l0.116 0.188h0.058v-0.288h-0.053v0.192zM16.294 19.643h0.143v-0.049h-0.143v-0.063h0.154v-0.049h-0.212v0.288h0.218v-0.049h-0.16v-0.078zM17.602 19.596h-0.113v-0.113h-0.058v0.287h0.058v-0.126h0.113v0.126h0.058v-0.288h-0.058v0.113zM18.145 19.643h0.144v-0.049h-0.144v-0.063h0.155v-0.049h-0.212v0.288h0.218v-0.049h-0.16v-0.078zM18.881 19.644c0.050-0.008 0.076-0.034 0.076-0.080 0-0.003 0-0.005 0-0.008 0-0.023-0.011-0.043-0.029-0.056l-0-0c-0.021-0.011-0.046-0.017-0.073-0.017-0.004 0-0.008 0-0.012 0l0.001-0h-0.122v0.287h0.058v-0.12h0.011c0.001-0 0.003-0 0.005-0 0.011 0 0.022 0.002 0.032 0.007l-0-0c0.008 0.005 0.015 0.012 0.020 0.021l0.063 0.091h0.069l-0.035-0.056c-0.016-0.028-0.037-0.051-0.063-0.069l-0.001-0zM18.822 19.604h-0.043v-0.072h0.045c0.004-0 0.008-0 0.012-0 0.017 0 0.033 0.003 0.047 0.008l-0.001-0c0.008 0.007 0.013 0.017 0.013 0.028 0 0.006-0.002 0.012-0.004 0.018l0-0c-0.003 0.005-0.006 0.009-0.011 0.012l-0 0c-0.014 0.005-0.031 0.007-0.048 0.007-0.004 0-0.008-0-0.011-0l0 0zM19.436 19.643h0.143v-0.049h-0.143v-0.063h0.155v-0.049h-0.213v0.288h0.218v-0.049h-0.16v-0.078z"></path>
</symbol>
<symbol id="Client3" viewBox="0 0 32 32">
<path fill="#afb1b8" style="fill: var(--color4, #afb1b8)" d="M12.876 19.595c0.003 0 0.006 0.001 0.009 0.002s0.005 0.003 0.007 0.005h-0l0.041 0.039c-0.032 0.032-0.071 0.057-0.116 0.075-0.046 0.017-0.098 0.027-0.153 0.027-0.004 0-0.007-0-0.011-0h0.001c-0.053 0.001-0.105-0.008-0.154-0.025-0.045-0.016-0.084-0.040-0.116-0.071l0 0c-0.032-0.030-0.057-0.066-0.074-0.107l-0.001-0.002c-0.017-0.040-0.026-0.087-0.026-0.136 0-0.001 0-0.003 0-0.004v0c-0-0.002-0-0.005-0-0.007 0-0.096 0.042-0.182 0.108-0.241l0-0c0.035-0.031 0.077-0.055 0.123-0.071 0.051-0.017 0.104-0.025 0.159-0.025 0.003-0 0.006-0 0.010-0 0.049 0 0.096 0.008 0.14 0.024l-0.003-0.001c0.041 0.015 0.078 0.037 0.111 0.063l-0.034 0.042c-0.002 0.003-0.005 0.006-0.009 0.007l-0 0c-0.003 0.002-0.008 0.003-0.012 0.003-0.001 0-0.001-0-0.002-0h0c-0.006-0-0.011-0.002-0.015-0.004l0 0-0.018-0.011-0.026-0.014c-0.023-0.011-0.051-0.020-0.079-0.025l-0.002-0c-0.017-0.003-0.037-0.005-0.057-0.005-0.002 0-0.003 0-0.005 0h0c-0.001 0-0.002-0-0.004-0-0.039 0-0.077 0.007-0.112 0.020l0.002-0.001c-0.035 0.012-0.064 0.030-0.090 0.053l0-0c-0.026 0.024-0.045 0.053-0.058 0.084s-0.021 0.068-0.021 0.107c0 0.001 0 0.002 0 0.004v-0c-0 0.001-0 0.003-0 0.004 0 0.039 0.008 0.076 0.022 0.11l-0.001-0.002c0.013 0.031 0.032 0.059 0.057 0.083 0.024 0.023 0.053 0.040 0.085 0.052s0.069 0.018 0.106 0.018c0.021 0 0.042-0.001 0.063-0.004 0.052-0.005 0.099-0.026 0.136-0.058l-0 0c0.005-0.004 0.012-0.007 0.019-0.007h0zM14.062 19.398c0 0.001 0 0.003 0 0.004 0 0.049-0.010 0.095-0.029 0.137l0.001-0.002c-0.018 0.043-0.044 0.078-0.077 0.107l-0 0c-0.034 0.030-0.075 0.054-0.119 0.070l-0.002 0.001c-0.047 0.016-0.1 0.025-0.156 0.025s-0.109-0.009-0.16-0.026l0.004 0.001c-0.047-0.017-0.087-0.041-0.121-0.071l0 0c-0.033-0.030-0.059-0.066-0.077-0.107l-0.001-0.002c-0.018-0.041-0.028-0.089-0.028-0.139s0.010-0.098 0.029-0.141l-0.001 0.002c0.018-0.041 0.044-0.078 0.078-0.109 0.034-0.030 0.075-0.053 0.12-0.068 0.047-0.016 0.1-0.025 0.156-0.025s0.11 0.009 0.159 0.026l-0.003-0.001c0.046 0.016 0.087 0.040 0.121 0.071s0.060 0.068 0.078 0.107c0.019 0.045 0.028 0.092 0.028 0.14zM13.954 19.398c0-0.002 0-0.004 0-0.006 0-0.038-0.007-0.074-0.020-0.108l0.001 0.002c-0.025-0.064-0.076-0.113-0.14-0.135l-0.002-0c-0.034-0.012-0.073-0.018-0.113-0.018s-0.080 0.007-0.116 0.019l0.003-0.001c-0.034 0.012-0.063 0.030-0.087 0.053l0-0c-0.024 0.023-0.043 0.051-0.055 0.082l-0.001 0.002c-0.012 0.033-0.020 0.071-0.020 0.111s0.007 0.078 0.020 0.114l-0.001-0.002c0.025 0.064 0.076 0.114 0.141 0.135l0.002 0c0.073 0.024 0.154 0.024 0.227 0 0.033-0.011 0.063-0.029 0.087-0.052 0.025-0.024 0.043-0.053 0.055-0.083 0.014-0.036 0.020-0.074 0.020-0.111zM14.871 19.515l0.011 0.025c0.004-0.009 0.008-0.017 0.012-0.025 0.005-0.010 0.009-0.018 0.014-0.025l-0.001 0.001 0.262-0.414c0.005-0.007 0.010-0.012 0.015-0.013s0.012-0.002 0.018-0.002c0.001 0 0.002 0 0.004 0h0.077v0.674h-0.092v-0.516c-0-0.003-0-0.008-0-0.012s0-0.008 0-0.012l-0 0.001-0.264 0.42c-0.004 0.006-0.009 0.012-0.015 0.015l-0 0c-0.006 0.004-0.014 0.006-0.022 0.006-0 0-0 0-0 0h-0.015c-0 0-0 0-0.001 0-0.008 0-0.016-0.002-0.022-0.006l0 0c-0.007-0.004-0.012-0.009-0.015-0.015l-0-0-0.272-0.423v0.541h-0.089v-0.672h0.077c0.001-0 0.002-0 0.004-0 0.006 0 0.013 0.001 0.018 0.002l-0.001-0c0.006 0.003 0.011 0.007 0.014 0.013l0.268 0.415c0.005 0.007 0.009 0.015 0.013 0.023l0 0.001zM15.858 19.482v0.252h-0.102v-0.673h0.229c0.043-0.001 0.086 0.004 0.128 0.015 0.033 0.008 0.064 0.023 0.090 0.042 0.022 0.017 0.039 0.039 0.051 0.065l0 0.001c0.012 0.027 0.018 0.057 0.017 0.086 0 0.001 0 0.003 0 0.004 0 0.061-0.029 0.115-0.074 0.149l-0 0c-0.026 0.020-0.057 0.035-0.091 0.044-0.035 0.010-0.074 0.016-0.116 0.016-0.003 0-0.006-0-0.009-0l-0.124-0.002zM15.858 19.41h0.124c0.027 0 0.054-0.003 0.080-0.010 0.022-0.006 0.041-0.016 0.058-0.029l-0 0c0.029-0.024 0.047-0.060 0.047-0.1 0-0.001 0-0.001 0-0.002v0c0-0.002 0-0.005 0-0.007 0-0.017-0.004-0.034-0.011-0.048l0 0.001c-0.009-0.018-0.021-0.034-0.036-0.046l-0-0c-0.034-0.023-0.076-0.037-0.122-0.037-0.006 0-0.011 0-0.017 0.001l0.001-0h-0.124v0.277zM17.237 19.735h-0.081c-0 0-0.001 0-0.002 0-0.008 0-0.015-0.002-0.021-0.006l0 0c-0.006-0.004-0.010-0.009-0.013-0.015l-0-0-0.070-0.163h-0.351l-0.072 0.163c-0.006 0.013-0.020 0.022-0.035 0.022-0 0-0.001 0-0.001 0h-0.081l0.308-0.674h0.107l0.312 0.674zM16.729 19.485h0.29l-0.122-0.274c-0.009-0.021-0.017-0.042-0.023-0.063l-0.012 0.035c-0.004 0.011-0.008 0.021-0.011 0.029l-0.121 0.274zM17.681 19.064c0.006 0.003 0.011 0.007 0.015 0.012l0.449 0.508v-0.523h0.092v0.674h-0.051c-0 0-0.001 0-0.001 0-0.007 0-0.014-0.002-0.020-0.004l0 0c-0.006-0.003-0.012-0.007-0.017-0.012l-0-0-0.448-0.507c0 0.003 0 0.008 0 0.012s-0 0.008-0 0.012l0-0.001v0.501h-0.092v-0.674h0.054c0.006 0 0.013 0.001 0.018 0.003zM18.994 19.467v0.267h-0.103v-0.267l-0.284-0.406h0.092c0.001-0 0.001-0 0.002-0 0.007 0 0.014 0.002 0.020 0.006l-0-0c0.006 0.005 0.010 0.010 0.014 0.015l0.177 0.262c0.007 0.011 0.013 0.021 0.018 0.031s0.009 0.019 0.013 0.028l0.013-0.029c0.005-0.011 0.011-0.021 0.017-0.031l0.175-0.264c0.004-0.006 0.008-0.010 0.013-0.014l0-0c0.006-0.004 0.013-0.007 0.020-0.007 0.001 0 0.001 0 0.002 0h0.093l-0.284 0.408zM14.82 17.931c0.045 0.005 0.090 0.009 0.136 0.012 0.693-0.269 1.278-0.71 1.684-1.266s0.614-1.205 0.598-1.864l-0.763-0.663c0.155 0.702 0.082 1.427-0.21 2.095s-0.792 1.252-1.445 1.687z"></path>
<path fill="#afb1b8" style="fill: var(--color4, #afb1b8)" d="M14.548 17.9l0.021 0.004c0.697-0.433 1.229-1.038 1.526-1.737s0.346-1.459 0.141-2.182l-1.087-0.944c0.44 0.776 0.616 1.645 0.51 2.505s-0.491 1.676-1.111 2.354zM18.234 15.591c-0.185 0.724-0.633 1.377-1.279 1.862-0.176 0.134-0.375 0.26-0.585 0.368l-0.023 0.011c0.526-0.134 1.009-0.372 1.413-0.694s0.717-0.721 0.915-1.165l-0.441-0.383z"></path>
<path fill="#afb1b8" style="fill: var(--color4, #afb1b8)" d="M18.061 15.484l-0.628-0.545c-0.012 0.622-0.216 1.229-0.589 1.76s-0.904 0.964-1.536 1.256h0.003c0.141 0 0.281-0.008 0.421-0.022 0.591-0.209 1.112-0.543 1.519-0.97s0.685-0.935 0.81-1.479zM14.638 12.642l-0.749-0.651c-0.669 0.225-1.245 0.62-1.652 1.134s-0.625 1.122-0.627 1.746c0.002 0.689 0.269 1.358 0.759 1.9s1.172 0.927 1.941 1.094c0.687-0.727 1.089-1.625 1.148-2.564s-0.228-1.87-0.82-2.658zM19.791 15.384c-0.003-0.817-0.378-1.601-1.043-2.179s-1.567-0.904-2.508-0.906c-0.002 0-0.005 0-0.008 0-0.452 0-0.886 0.075-1.291 0.214l0.028-0.008 4.584 3.983c0.149-0.325 0.237-0.704 0.237-1.104v-0z"></path>
</symbol>
<symbol id="Client4" viewBox="0 0 32 32">
<path fill="#2196f3" style="fill: var(--color3, #2196f3)" d="M10.569 14.325h-0.001c-0.451 0-0.817 0.325-0.817 0.726v0.001c0 0.401 0.366 0.726 0.817 0.726h0.001c0.451 0 0.817-0.325 0.817-0.726v-0c0-0.401-0.366-0.727-0.817-0.727zM16.601 14.093c-0.001-0.557-0.251-1.091-0.694-1.485s-1.044-0.616-1.671-0.617c-0.627 0.001-1.228 0.223-1.672 0.617s-0.693 0.928-0.695 1.486v3.073s4.731-0.468 4.732-3.072v-0.001zM8.094 18.174c0.001 0.388 0.175 0.759 0.483 1.033s0.726 0.429 1.163 0.43c0.436-0.001 0.854-0.156 1.163-0.43s0.482-0.645 0.483-1.033v-2.138s-3.292 0.326-3.292 2.138zM9.74 18.557c-0.085 0-0.168-0.022-0.239-0.065-0.069-0.041-0.123-0.099-0.158-0.169l-0.001-0.002c-0.021-0.043-0.033-0.093-0.033-0.146 0-0.027 0.003-0.052 0.009-0.077l-0 0.002c0.017-0.074 0.058-0.143 0.118-0.196s0.137-0.090 0.221-0.105c0.025-0.005 0.055-0.007 0.084-0.007 0.059 0 0.116 0.011 0.168 0.030l-0.003-0.001c0.079 0.029 0.146 0.078 0.193 0.141s0.073 0.137 0.073 0.213c0 0.050-0.011 0.101-0.032 0.147-0.023 0.049-0.055 0.090-0.093 0.124l-0 0c-0.040 0.036-0.088 0.064-0.14 0.083-0.049 0.019-0.106 0.029-0.165 0.029-0 0-0 0-0 0h0v-0.002zM13.067 18.346h-0.318v0.328h-0.165v-0.803h0.523v0.134h-0.357v0.207h0.318v0.133zM13.862 18.291c0 0.079-0.014 0.148-0.042 0.208s-0.068 0.105-0.12 0.138c-0.049 0.031-0.109 0.049-0.172 0.049-0.002 0-0.004-0-0.006-0h0c-0.067 0-0.126-0.016-0.178-0.048-0.053-0.033-0.094-0.080-0.12-0.135l-0.001-0.002c-0.027-0.058-0.044-0.126-0.044-0.198 0-0.002 0-0.005 0-0.007v0-0.040c0-0.079 0.014-0.149 0.042-0.209s0.069-0.107 0.121-0.138c0.052-0.032 0.112-0.049 0.179-0.049s0.126 0.016 0.178 0.049c0.052 0.032 0.092 0.078 0.121 0.138s0.043 0.129 0.043 0.208v0.036zM13.694 18.255c0-0.084-0.015-0.148-0.045-0.192-0.027-0.040-0.072-0.066-0.123-0.066-0.002 0-0.005 0-0.007 0h0c-0.002-0-0.004-0-0.006-0-0.051 0-0.095 0.026-0.122 0.065l-0 0.001c-0.030 0.043-0.045 0.106-0.046 0.19v0.039c0 0.082 0.015 0.145 0.045 0.191s0.073 0.068 0.13 0.068c0.002 0 0.004 0 0.007 0 0.050 0 0.095-0.026 0.121-0.065l0-0.001c0.030-0.044 0.045-0.107 0.045-0.191v-0.039zM14.399 18.463c0-0.001 0-0.003 0-0.005 0-0.027-0.013-0.051-0.033-0.067l-0-0c-0.022-0.017-0.062-0.035-0.119-0.053-0.053-0.017-0.098-0.035-0.141-0.057l0.005 0.002c-0.091-0.049-0.137-0.116-0.137-0.199 0-0.043 0.012-0.082 0.036-0.116s0.060-0.061 0.105-0.080c0.046-0.019 0.098-0.029 0.154-0.029s0.108 0.010 0.153 0.031c0.045 0.021 0.080 0.050 0.104 0.088s0.038 0.081 0.038 0.129h-0.166c0-0.037-0.011-0.065-0.035-0.085s-0.056-0.031-0.098-0.031c-0.040 0-0.072 0.009-0.094 0.026-0.021 0.015-0.034 0.038-0.034 0.065 0 0.001 0 0.001 0 0.002v-0c0 0.026 0.013 0.048 0.039 0.066s0.065 0.034 0.116 0.049c0.094 0.028 0.163 0.063 0.206 0.105s0.065 0.094 0.065 0.157c0 0.069-0.026 0.124-0.079 0.164s-0.123 0.059-0.212 0.059c-0.062 0-0.118-0.011-0.169-0.034-0.048-0.020-0.087-0.052-0.116-0.092l-0.001-0.001c-0.025-0.037-0.040-0.083-0.040-0.132 0-0.002 0-0.004 0-0.005v0h0.166c0 0.088 0.053 0.133 0.159 0.133 0.039 0 0.070-0.008 0.092-0.024 0.020-0.014 0.033-0.038 0.033-0.064 0-0.001-0-0.002-0-0.003v0zM15.281 18.005h-0.246v0.669h-0.166v-0.669h-0.242v-0.134h0.654v0.134zM15.859 18.326h-0.318v0.215h0.373v0.133h-0.538v-0.803h0.537v0.134h-0.372v0.191h0.318v0.13zM16.309 18.38h-0.132v0.294h-0.165v-0.803h0.298c0.095 0 0.168 0.021 0.219 0.063s0.077 0.102 0.077 0.179c0 0.055-0.012 0.101-0.036 0.137-0.027 0.039-0.063 0.069-0.106 0.087l-0.002 0.001 0.174 0.328v0.008h-0.177l-0.151-0.294zM16.177 18.246h0.134c0.041 0 0.073-0.010 0.096-0.031 0.021-0.021 0.034-0.050 0.034-0.082 0-0.002-0-0.004-0-0.006v0c0-0.038-0.011-0.068-0.032-0.089s-0.054-0.033-0.099-0.033h-0.133v0.241zM17.18 18.391v0.283h-0.165v-0.803h0.313c0.060 0 0.113 0.011 0.159 0.033s0.081 0.053 0.106 0.094c0.024 0.040 0.037 0.087 0.037 0.138 0 0.079-0.027 0.141-0.081 0.186s-0.128 0.068-0.223 0.068h-0.145zM17.18 18.257h0.148c0.044 0 0.077-0.010 0.1-0.031s0.035-0.050 0.035-0.088c0-0.002 0-0.004 0-0.006 0-0.035-0.013-0.066-0.035-0.090l0 0c-0.023-0.024-0.055-0.037-0.096-0.037h-0.152v0.252zM18.226 18.326h-0.318v0.215h0.373v0.133h-0.538v-0.803h0.537v0.134h-0.372v0.191h0.318v0.13zM18.994 18.005h-0.246v0.669h-0.165v-0.669h-0.243v-0.134h0.654v0.134zM19.572 18.326h-0.318v0.215h0.373v0.133h-0.538v-0.803h0.537v0.134h-0.372v0.191h0.318v0.13zM20.021 18.38h-0.132v0.294h-0.165v-0.803h0.298c0.095 0 0.168 0.021 0.219 0.063s0.077 0.102 0.077 0.179c0 0.055-0.012 0.101-0.036 0.137-0.027 0.039-0.063 0.069-0.106 0.087l-0.002 0.001 0.174 0.328v0.008h-0.177l-0.151-0.294zM19.89 18.246h0.133c0.041 0 0.074-0.010 0.096-0.031s0.034-0.051 0.034-0.088c0-0.038-0.011-0.068-0.033-0.089s-0.054-0.033-0.099-0.033h-0.133v0.241zM20.862 18.464c0-0.001 0-0.003 0-0.005 0-0.027-0.013-0.052-0.033-0.067l-0-0c-0.022-0.017-0.062-0.035-0.119-0.053-0.053-0.016-0.098-0.035-0.141-0.057l0.005 0.002c-0.091-0.049-0.137-0.116-0.137-0.199 0-0.043 0.012-0.082 0.036-0.116s0.060-0.061 0.105-0.080c0.046-0.019 0.098-0.029 0.154-0.029s0.108 0.010 0.153 0.031c0.045 0.021 0.080 0.050 0.104 0.088s0.038 0.081 0.038 0.129h-0.165c0-0.037-0.012-0.065-0.035-0.085s-0.056-0.031-0.098-0.031c-0.040 0-0.072 0.009-0.094 0.026-0.020 0.015-0.034 0.038-0.034 0.065 0 0.001 0 0.001 0 0.002v-0c0 0.026 0.013 0.048 0.039 0.066s0.065 0.034 0.116 0.049c0.094 0.028 0.163 0.063 0.206 0.105s0.065 0.094 0.065 0.157c0 0.069-0.026 0.124-0.079 0.164s-0.123 0.059-0.212 0.059c-0.062 0-0.118-0.011-0.169-0.034-0.048-0.020-0.087-0.052-0.116-0.092l-0.001-0.001c-0.025-0.037-0.040-0.083-0.040-0.132 0-0.002 0-0.003 0-0.005v0h0.166c0 0.088 0.053 0.133 0.159 0.133 0.039 0 0.070-0.008 0.092-0.024 0.020-0.014 0.033-0.038 0.033-0.064 0-0.001-0-0.002-0-0.003v0z"></path>
</symbol>
<symbol id="Client5" viewBox="0 0 32 32">
<path fill="#afb1b8" style="fill: var(--color4, #afb1b8)" d="M11.060 18.774c0.046 0.052 0.070 0.117 0.069 0.184 0 0.004 0 0.009 0 0.014 0 0.041-0.009 0.080-0.026 0.115l0.001-0.002c-0.020 0.042-0.048 0.077-0.082 0.105l-0.001 0c-0.078 0.054-0.174 0.086-0.278 0.086-0.011 0-0.023-0-0.034-0.001l0.002 0h-0.547v-1.165h0.535c0.009-0.001 0.021-0.001 0.032-0.001 0.098 0 0.19 0.029 0.267 0.079l-0.002-0.001c0.035 0.027 0.062 0.060 0.080 0.098s0.026 0.079 0.024 0.12c0.003 0.064-0.019 0.127-0.062 0.178-0.042 0.046-0.099 0.078-0.163 0.091 0.072 0.012 0.138 0.047 0.184 0.1zM10.419 18.598h0.229c0.052 0.003 0.104-0.010 0.146-0.039 0.017-0.014 0.030-0.031 0.039-0.051l0-0.001c0.007-0.015 0.011-0.033 0.011-0.051 0-0.004-0-0.008-0.001-0.012l0 0c0-0.003 0-0.006 0-0.010 0-0.019-0.004-0.037-0.011-0.053l0 0.001c-0.009-0.021-0.022-0.038-0.038-0.052l-0-0c-0.037-0.025-0.083-0.040-0.132-0.040-0.006 0-0.013 0-0.019 0.001l0.001-0h-0.225v0.306zM10.816 19.045c0.018-0.014 0.032-0.032 0.042-0.053l0-0.001c0.008-0.016 0.012-0.036 0.012-0.056 0-0.003-0-0.006-0-0.010l0 0c0-0.003 0-0.006 0-0.009 0-0.021-0.005-0.041-0.013-0.058l0 0.001c-0.010-0.021-0.025-0.039-0.043-0.053l-0-0c-0.039-0.027-0.088-0.043-0.14-0.043-0.005 0-0.011 0-0.016 0l0.001-0h-0.24v0.321h0.243c0.055 0.003 0.109-0.011 0.154-0.040zM12.154 19.275l-0.298-0.456h-0.112v0.456h-0.256v-1.165h0.485c0.010-0.001 0.022-0.001 0.035-0.001 0.114 0 0.219 0.038 0.304 0.101l-0.001-0.001c0.068 0.063 0.109 0.147 0.115 0.235 0.001 0.007 0.001 0.016 0.001 0.024 0 0.085-0.030 0.163-0.081 0.223l0-0.001c-0.060 0.062-0.14 0.105-0.229 0.118l-0.002 0 0.317 0.466h-0.279zM11.745 18.66h0.21c0.146 0 0.218-0.059 0.218-0.176 0-0.003 0-0.006 0-0.009 0-0.022-0.004-0.043-0.013-0.062l0 0.001c-0.010-0.024-0.024-0.044-0.041-0.060l-0-0c-0.040-0.030-0.090-0.048-0.145-0.048-0.007 0-0.014 0-0.021 0.001l0.001-0h-0.212l0.002 0.355zM13.555 19.040h-0.511l-0.090 0.235h-0.269l0.469-1.152h0.29l0.467 1.152h-0.268l-0.088-0.235zM13.486 18.864l-0.187-0.492-0.187 0.492h0.373zM15.308 19.275h-0.254l-0.57-0.792v0.792h-0.254v-1.166h0.254l0.57 0.797v-0.797h0.254v1.166zM16.759 18.996c-0.053 0.088-0.133 0.16-0.23 0.206-0.099 0.047-0.215 0.074-0.337 0.074-0.007 0-0.015-0-0.022-0l0.001 0h-0.453v-1.165h0.453c0.006-0 0.014-0 0.021-0 0.122 0 0.237 0.026 0.341 0.074l-0.005-0.002c0.097 0.045 0.177 0.116 0.23 0.203 0.052 0.095 0.080 0.2 0.080 0.306s-0.027 0.211-0.080 0.306zM16.468 18.968c0.069-0.072 0.112-0.17 0.112-0.278v-0c0-0.102-0.040-0.201-0.112-0.278-0.079-0.062-0.18-0.1-0.289-0.1-0.010 0-0.020 0-0.030 0.001l0.001-0h-0.177v0.754h0.177c0.009 0.001 0.019 0.001 0.029 0.001 0.11 0 0.21-0.038 0.29-0.101l-0.001 0.001zM13.714 11.627s3.283 1.135 3.213 2.777v2.777s-3.28-1.135-3.212-2.777l-0.001-2.777zM19.851 16.53c0.62-0.391 1.337-0.632 2.086-0.704v-0.87c-0.863 0.305-1.594 0.856-2.086 1.573z"></path>
<path fill="#afb1b8" style="fill: var(--color4, #afb1b8)" d="M19.479 16.792c0.507-0.936 1.387-1.657 2.458-2.017v-2.505s-4.675 1.616-4.576 3.955v3.954s0.208-0.072 0.536-0.208c0-0.126 0-0.254 0.015-0.382 0.097-1.085 0.66-2.091 1.567-2.797z"></path>
<path fill="#afb1b8" style="fill: var(--color4, #afb1b8)" d="M19.034 18.261c0.024-0.274 0.079-0.546 0.164-0.81-0.565 0.609-0.907 1.365-0.977 2.161-0.007 0.075-0.011 0.15-0.013 0.228 0.39-0.171 0.685-0.316 0.974-0.471l-0.075 0.037c-0.083-0.377-0.107-0.762-0.073-1.145zM19.22 18.276c-0.009 0.096-0.014 0.208-0.014 0.32 0 0.254 0.026 0.501 0.076 0.74l-0.004-0.023c1.277-0.7 2.712-1.781 2.657-3.088v-0.114c-0.913 0.094-1.766 0.459-2.43 1.040-0.146 0.329-0.248 0.711-0.284 1.111l-0.001 0.014z"></path>
</symbol>
<symbol id="Client6" viewBox="0 0 32 32">
<path fill="#afb1b8" style="fill: var(--color4, #afb1b8)" d="M16.080 15.512c-0.072-0.093-0.115-0.21-0.115-0.338 0-0.013 0-0.025 0.001-0.038l-0 0.002v-0.543c0-0.166 0.038-0.293 0.113-0.379s0.205-0.13 0.389-0.129c0.173 0 0.295 0.037 0.368 0.111 0.079 0.094 0.117 0.209 0.109 0.325v0.128h-0.309v-0.129c0.001-0.042-0.002-0.085-0.009-0.127-0.005-0.031-0.021-0.057-0.044-0.075l-0-0c-0.028-0.019-0.062-0.030-0.099-0.030-0.005 0-0.009 0-0.014 0.001l0.001-0c-0.004-0-0.009-0-0.013-0-0.039 0-0.075 0.012-0.105 0.032l0.001-0c-0.026 0.021-0.044 0.049-0.051 0.082l-0 0.001c-0.008 0.037-0.012 0.080-0.012 0.124 0 0.004 0 0.007 0 0.011v-0.001 0.659c-0.005 0.063 0.009 0.127 0.040 0.185 0.016 0.020 0.037 0.035 0.061 0.044l0.001 0c0.018 0.007 0.039 0.012 0.061 0.012 0.006 0 0.013-0 0.019-0.001l-0.001 0c0.004 0 0.008 0 0.013 0 0.036 0 0.070-0.011 0.097-0.031l-0.001 0c0.024-0.020 0.041-0.048 0.046-0.079l0-0.001c0.007-0.044 0.011-0.088 0.010-0.132v-0.134h0.309v0.122c0.001 0.010 0.001 0.021 0.001 0.032 0 0.117-0.041 0.225-0.109 0.31l0.001-0.001c-0.071 0.081-0.192 0.121-0.37 0.121s-0.312-0.043-0.388-0.133zM17.366 15.518c-0.078-0.085-0.117-0.208-0.117-0.371v-0.571c0-0.161 0.039-0.283 0.117-0.366s0.208-0.124 0.391-0.124c0.182 0 0.311 0.041 0.389 0.124s0.118 0.205 0.118 0.366v0.571c0 0.161-0.040 0.285-0.119 0.37s-0.208 0.127-0.388 0.127-0.313-0.043-0.392-0.127zM17.901 15.381c0.028-0.053 0.041-0.111 0.037-0.169v-0.699c0-0.006 0.001-0.012 0.001-0.019 0-0.054-0.014-0.104-0.038-0.148l0.001 0.002c-0.016-0.020-0.038-0.036-0.062-0.045l-0.001-0c-0.018-0.007-0.039-0.011-0.061-0.011-0.007 0-0.015 0-0.022 0.001l0.001-0c-0.006-0.001-0.014-0.001-0.021-0.001-0.022 0-0.043 0.004-0.062 0.011l0.001-0c-0.026 0.010-0.047 0.025-0.063 0.045l-0 0c-0.028 0.052-0.041 0.109-0.037 0.166v0.702c-0.004 0.058 0.009 0.116 0.037 0.169 0.018 0.018 0.040 0.032 0.065 0.042 0.024 0.009 0.051 0.015 0.079 0.015s0.056-0.005 0.081-0.015l-0.001 0.001c0.025-0.010 0.047-0.024 0.065-0.042v-0.003zM18.636 14.103h0.332l0.25 1.053 0.256-1.053h0.324l0.033 1.52h-0.239l-0.026-1.057-0.247 1.057h-0.192l-0.256-1.060-0.024 1.060h-0.242l0.030-1.52zM20.203 14.103h0.518c0.298 0 0.448 0.144 0.448 0.432 0 0.276-0.157 0.413-0.471 0.413h-0.176v0.676h-0.32l0.002-1.52zM20.646 14.753c0.032 0.004 0.064 0.001 0.094-0.007s0.058-0.022 0.082-0.041c0.037-0.051 0.053-0.112 0.046-0.172 0-0.005 0-0.011 0-0.017 0-0.043-0.006-0.085-0.017-0.125l0.001 0.003c-0.005-0.016-0.013-0.030-0.024-0.042l0 0c-0.011-0.012-0.025-0.023-0.040-0.030l-0.001-0c-0.037-0.016-0.081-0.025-0.126-0.025-0.006 0-0.012 0-0.017 0l0.001-0h-0.124v0.454h0.124zM21.63 14.103h0.344l0.352 1.52h-0.298l-0.070-0.351h-0.306l-0.072 0.351h-0.302l0.352-1.52zM21.924 15.097l-0.12-0.638-0.12 0.638h0.239zM22.61 14.103h0.224l0.428 0.867v-0.867h0.265v1.52h-0.213l-0.431-0.905v0.905h-0.274l0.001-1.52zM24.149 15.044l-0.356-0.938h0.3l0.217 0.603 0.204-0.603h0.294l-0.352 0.939v0.58h-0.307v-0.58zM16.574 16.288v0.079h-0.261v0.618h-0.109v-0.618h-0.262v-0.079h0.632zM17.392 16.986h-0.085c-0.001 0-0.002 0-0.002 0-0.008 0-0.015-0.003-0.021-0.007l0 0c-0.006-0.004-0.011-0.009-0.014-0.016l-0-0-0.075-0.166h-0.362l-0.075 0.166c-0.002 0.007-0.006 0.014-0.012 0.019v0c-0.006 0.004-0.014 0.007-0.022 0.007-0.001 0-0.001-0-0.002-0h-0.084l0.32-0.697h0.111l0.324 0.695zM16.862 16.727h0.302l-0.128-0.284c-0.008-0.018-0.016-0.040-0.023-0.062l-0.001-0.004c-0.005 0.013-0.008 0.026-0.012 0.037l-0.012 0.029-0.127 0.283zM17.943 16.917c0.020 0.001 0.040 0.001 0.060 0 0.017-0.002 0.034-0.004 0.051-0.008 0.016-0.003 0.031-0.008 0.046-0.013s0.028-0.011 0.043-0.017v-0.157h-0.128c-0 0-0.001 0-0.001 0-0.006 0-0.012-0.002-0.016-0.006l0 0c-0.002-0.001-0.004-0.003-0.005-0.006l-0-0c-0.001-0.002-0.002-0.004-0.002-0.006 0-0 0-0 0-0.001v0-0.053h0.248v0.267c-0.039 0.024-0.084 0.044-0.131 0.056l-0.003 0.001c-0.026 0.007-0.053 0.011-0.080 0.015-0.031 0.003-0.062 0.004-0.093 0.004-0.001 0-0.003 0-0.004 0-0.056 0-0.11-0.010-0.16-0.027l0.003 0.001c-0.049-0.017-0.092-0.042-0.129-0.073l0.001 0c-0.034-0.030-0.062-0.067-0.082-0.108l-0.001-0.002c-0.019-0.041-0.029-0.089-0.029-0.14 0-0.002 0-0.003 0-0.005v0c-0-0.001-0-0.003-0-0.004 0-0.051 0.011-0.1 0.030-0.144l-0.001 0.002c0.018-0.041 0.047-0.079 0.082-0.11s0.080-0.056 0.128-0.072c0.055-0.018 0.113-0.027 0.171-0.026 0.030 0 0.059 0.002 0.089 0.006 0.026 0.004 0.052 0.010 0.076 0.018 0.023 0.007 0.044 0.017 0.064 0.028s0.038 0.023 0.056 0.036l-0.031 0.043c-0.003 0.004-0.006 0.007-0.010 0.009l-0 0c-0.004 0.002-0.009 0.004-0.015 0.004h-0c-0.007-0-0.014-0.002-0.020-0.006l0 0c-0.013-0.006-0.023-0.012-0.033-0.018l0.002 0.001c-0.012-0.007-0.026-0.013-0.041-0.018l-0.002-0.001c-0.016-0.006-0.036-0.011-0.056-0.015l-0.002-0c-0.023-0.004-0.050-0.006-0.077-0.006-0.002 0-0.003 0-0.005 0h0c-0.001 0-0.003-0-0.004-0-0.043 0-0.084 0.007-0.122 0.020l0.003-0.001c-0.036 0.012-0.068 0.031-0.094 0.055-0.025 0.024-0.045 0.053-0.059 0.085l-0.001 0.002c-0.014 0.035-0.021 0.074-0.021 0.116s0.008 0.082 0.022 0.118l-0.001-0.002c0.014 0.033 0.036 0.063 0.064 0.088 0.026 0.024 0.058 0.043 0.093 0.055 0.041 0.012 0.084 0.017 0.127 0.014zM18.962 16.906h0.349v0.079h-0.456v-0.697h0.109l-0.003 0.618zM19.675 16.986h-0.109v-0.697h0.109v0.697zM20.081 16.292c0.007 0.003 0.012 0.007 0.017 0.013l0 0 0.467 0.526c-0-0.004-0-0.008-0-0.012s0-0.009 0-0.013l-0 0.001v-0.52h0.095v0.7h-0.055c-0.001 0-0.002 0-0.004 0-0.007 0-0.014-0.002-0.021-0.004l0 0c-0.007-0.003-0.012-0.008-0.017-0.013l-0-0-0.467-0.525v0.542h-0.091v-0.697h0.057c0.006 0 0.012 0.001 0.018 0.003zM21.466 16.288v0.077h-0.387v0.23h0.314v0.074h-0.314v0.238h0.387v0.077h-0.5v-0.696h0.5zM10.007 11.982l4.856 1.19v4.171l-4.856-1.19v-4.172zM9.695 11.627v4.73l5.478 1.343v-4.729l-5.478-1.344z"></path>
<path fill="#afb1b8" style="fill: var(--color4, #afb1b8)" d="M12.631 19.895l-5.478-1.344v-4.729l5.478 1.344v4.73z"></path>
<path fill="#afb1b8" style="fill: var(--color4, #afb1b8)" d="M9.786 11.929l4.792 1.175-2.038 1.76-4.793-1.176 2.039-1.759zM9.695 11.627l-2.543 2.195 5.478 1.344 2.542-2.195-5.478-1.344zM12.939 19.629l2.234-1.929-2.234-0.548v2.477z"></path>
</symbol>
<symbol id="clock" viewBox="0 0 32 32">
<path fill="#f5f4fa" style="fill: var(--color1, #f5f4fa)" d="M0.474 8.889h31.052c0.262 0 0.474 0.212 0.474 0.474v13.274c0 0.262-0.212 0.474-0.474 0.474h-31.052c-0.262 0-0.474-0.212-0.474-0.474v-13.274c0-0.262 0.212-0.474 0.474-0.474z"></path>
<path fill="#212121" style="fill: var(--color2, #212121)" d="M19.966 15.819c-0-2.191-1.777-3.967-3.969-3.967s-3.967 1.777-3.967 3.969c0 1.76 1.146 3.252 2.733 3.771l0.028 0.008c0.016 0.005 0.032 0.007 0.048 0.007 0.031 0 0.062-0.008 0.089-0.024 0.035-0.021 0.061-0.054 0.073-0.092l1.002-3.176c0.273-0.001 0.493-0.223 0.493-0.496 0-0.001 0-0.002 0-0.003v0c-0.001-0.273-0.223-0.494-0.496-0.494-0.001 0-0.002 0-0.003 0h0c-0.077 0-0.151 0.019-0.215 0.051l0.003-0.001-1.324-1.324c-0.030-0.029-0.070-0.046-0.115-0.046-0.091 0-0.165 0.074-0.165 0.165 0 0.045 0.018 0.085 0.046 0.115l-0-0 1.323 1.325c-0.031 0.062-0.050 0.136-0.050 0.214 0 0.156 0.073 0.295 0.188 0.384l0.001 0.001-0.955 3.026c-1.887-0.695-2.853-2.788-2.158-4.675s2.788-2.853 4.675-2.158c1.887 0.695 2.853 2.788 2.158 4.675-0.349 0.928-1.038 1.661-1.912 2.058l-0.023 0.009-0.103-0.486c-0.016-0.075-0.082-0.131-0.162-0.131-0.042 0-0.081 0.016-0.11 0.042l0-0-0.995 0.888c-0.034 0.030-0.055 0.075-0.055 0.124 0 0.073 0.048 0.136 0.114 0.157l0.001 0 1.27 0.405c0.015 0.005 0.033 0.008 0.051 0.008 0.091 0 0.165-0.074 0.165-0.165 0-0.012-0.001-0.024-0.004-0.036l0 0.001-0.101-0.477c1.433-0.616 2.419-2.015 2.419-3.644 0-0.003 0-0.006 0-0.009v0zM15.998 15.654c0.091 0 0.165 0.074 0.165 0.165s-0.074 0.165-0.165 0.165v0c-0.091 0-0.165-0.074-0.165-0.165s0.074-0.165 0.165-0.165v0zM16.542 19.507l0.566-0.505 0.156 0.736-0.723-0.231z"></path>
<path fill="#2196f3" style="fill: var(--color3, #2196f3)" d="M15.833 12.678v0.331c0 0.091 0.074 0.165 0.165 0.165s0.165-0.074 0.165-0.165v0-0.331c0-0.091-0.074-0.165-0.165-0.165s-0.165 0.074-0.165 0.165v0zM12.857 15.654c-0.091 0-0.165 0.074-0.165 0.165s0.074 0.165 0.165 0.165h0.331c0.091 0 0.165-0.074 0.165-0.165s-0.074-0.165-0.165-0.165h-0.331zM19.139 15.984c0.091 0 0.165-0.074 0.165-0.165s-0.074-0.165-0.165-0.165h-0.331c-0.091 0-0.165 0.074-0.165 0.165s0.074 0.165 0.165 0.165h0.331z"></path>
</symbol>
<symbol id="diagram" viewBox="0 0 32 32">
<path fill="#f5f4fa" style="fill: var(--color1, #f5f4fa)" d="M0.474 8.889h31.052c0.262 0 0.474 0.212 0.474 0.474v13.274c0 0.262-0.212 0.474-0.474 0.474h-31.052c-0.262 0-0.474-0.212-0.474-0.474v-13.274c0-0.262 0.212-0.474 0.474-0.474z"></path>
<path fill="#2196f3" style="fill: var(--color3, #2196f3)" d="M15.721 15.732h0.276v1.244h-0.276v-1.244zM16.827 16.284h0.276v0.691h-0.276v-0.691zM14.616 16.699h0.276v0.276h-0.276v-0.276zM13.787 16.561h0.276v0.415h-0.276v-0.415z"></path>
<path fill="#212121" style="fill: var(--color2, #212121)" d="M12.266 19.186h6.634c0.229 0 0.415-0.186 0.415-0.415v-0.553c0-0.229-0.186-0.415-0.415-0.415v0h-0.138v-3.447l0.785-0.743c0.054 0.027 0.117 0.043 0.184 0.043 0.23 0 0.417-0.187 0.417-0.417s-0.187-0.417-0.417-0.417c-0.23 0-0.417 0.187-0.417 0.417 0 0.064 0.014 0.124 0.040 0.179l-0.001-0.003-0.591 0.561v-0.319c-0-0.229-0.186-0.415-0.415-0.415h-5.528c-0.229 0-0.415 0.186-0.415 0.415v0 4.146h-0.138c-0.229 0-0.415 0.186-0.415 0.415v0.553c0 0.229 0.186 0.415 0.415 0.415v0zM19.729 13.106c0.076 0 0.138 0.062 0.138 0.138s-0.062 0.138-0.138 0.138v0c-0.076 0-0.138-0.062-0.138-0.138s0.062-0.138 0.138-0.138v0zM12.681 13.659c0-0.076 0.062-0.138 0.138-0.138h5.528c0.076 0 0.138 0.062 0.138 0.138v0.58l-0.276 0.263v-0.567c0-0.076-0.062-0.138-0.138-0.138h-4.975c-0.076 0-0.138 0.062-0.138 0.138v3.455c0 0.076 0.062 0.138 0.138 0.138h4.975c0.076 0 0.138-0.062 0.138-0.138v-2.508l0.276-0.262v3.185h-5.804v-4.146zM13.925 15.455c-0 0-0.001 0-0.001 0-0.229 0-0.415 0.186-0.415 0.415s0.186 0.415 0.415 0.415c0.112 0 0.214-0.044 0.288-0.117l-0 0 0.48 0.241c0.018 0.009 0.039 0.015 0.062 0.015 0.041 0 0.078-0.018 0.103-0.046l0-0 1.021-1.149 1.004 0.752c0.054 0.040 0.129 0.036 0.178-0.010l0.872-0.826v2.108h-4.699v-3.179h4.699v0.69l-0.978 0.926-1.012-0.759c-0.023-0.017-0.052-0.028-0.083-0.028-0.041 0-0.078 0.018-0.103 0.046l-0 0-1.035 1.165-0.387-0.194c0.003-0.015 0.004-0.032 0.005-0.049l0-0.001c0-0.229-0.186-0.415-0.415-0.415v0zM14.063 15.87c0 0.076-0.062 0.138-0.138 0.138s-0.138-0.062-0.138-0.138v0c0-0.076 0.062-0.138 0.138-0.138s0.138 0.062 0.138 0.138v0zM14.892 18.081h1.382v0.138c0 0.076-0.062 0.138-0.138 0.138h-1.106c-0.076 0-0.138-0.062-0.138-0.138v0-0.138zM12.128 18.219c0-0.076 0.062-0.138 0.138-0.138h2.349v0.138c0 0.229 0.186 0.415 0.415 0.415h1.106c0.229 0 0.415-0.186 0.415-0.415v0-0.138h2.349c0.076 0 0.138 0.062 0.138 0.138v0.553c0 0.076-0.062 0.138-0.138 0.138h-6.634c-0.076 0-0.138-0.062-0.138-0.138v0-0.553z"></path>
</symbol>
<symbol id="envelope" viewBox="0 0 32 32">
<path fill="#757575" style="fill: var(--color5, #757575)" d="M29 4h-26c-1.654 0-3 1.346-3 3v18c0 1.654 1.346 3 3 3h26c1.654 0 3-1.346 3-3v-18c0-1.654-1.346-3-3-3zM29 6c0.136 0 0.266 0.028 0.384 0.078l-13.384 11.6-13.384-11.6c0.113-0.049 0.245-0.078 0.384-0.078h26zM29 26h-26c-0.552 0-1-0.448-1-1v0-16.81l13.344 11.566c0.175 0.152 0.404 0.245 0.656 0.245s0.481-0.093 0.657-0.246l-0.001 0.001 13.344-11.566v16.81c0 0.552-0.448 1-1 1v0z"></path>
</symbol>
<symbol id="envelopehover" viewBox="0 0 32 32">
<path fill="#2196f3" style="fill: var(--color3, #2196f3)" d="M29 4h-26c-1.654 0-3 1.346-3 3v18c0 1.654 1.346 3 3 3h26c1.654 0 3-1.346 3-3v-18c0-1.654-1.346-3-3-3zM29 6c0.136 0 0.266 0.028 0.384 0.078l-13.384 11.6-13.384-11.6c0.113-0.049 0.245-0.078 0.384-0.078h26zM29 26h-26c-0.552 0-1-0.448-1-1v0-16.81l13.344 11.566c0.175 0.152 0.404 0.245 0.656 0.245s0.481-0.093 0.657-0.246l-0.001 0.001 13.344-11.566v16.81c0 0.552-0.448 1-1 1v0z"></path>
</symbol>
<symbol id="facebook" viewBox="0 0 32 32">
<path fill="#fff" style="fill: var(--color6, #fff)" d="M32 16c0 0.006 0 0.013 0 0.020 0 4.412-1.791 8.405-4.686 11.293l-0 0c-2.888 2.895-6.881 4.687-11.293 4.687-0.007 0-0.014 0-0.021 0h0.001c-0.006 0-0.013 0-0.020 0-4.412 0-8.405-1.791-11.293-4.686l-0-0c-2.895-2.888-4.687-6.881-4.687-11.293 0-0.007 0-0.014 0-0.021v0.001c0-0.006 0-0.013 0-0.020 0-4.412 1.791-8.405 4.686-11.293l0-0c2.888-2.895 6.881-4.687 11.293-4.687 0.007 0 0.014 0 0.021 0h-0.001c0.006 0 0.013 0 0.020 0 4.412 0 8.405 1.791 11.293 4.686l0 0c2.895 2.888 4.687 6.881 4.687 11.293 0 0.007 0 0.014 0 0.021v-0.001z"></path>
<path fill="#afb1b8" style="fill: var(--color4, #afb1b8)" d="M18.422 11.142h1.329v-2.313c-0.56-0.065-1.21-0.102-1.867-0.102-0.024 0-0.047 0-0.071 0h0.004c-1.915 0-3.226 1.204-3.226 3.418v2.036h-2.113v2.585h2.113v6.505h2.591v-6.505h2.027l0.322-2.585h-2.35v-1.782c0-0.747 0.201-1.258 1.243-1.258z"></path>
</symbol>
<symbol id="facebookfooter" viewBox="0 0 32 32">
<path fill="#fff" style="fill: var(--color6, #fff)" opacity="0.1" d="M32 16c0 0.006 0 0.013 0 0.020 0 4.412-1.791 8.405-4.686 11.293l-0 0c-2.888 2.895-6.881 4.687-11.293 4.687-0.007 0-0.014 0-0.021 0h0.001c-0.006 0-0.013 0-0.020 0-4.412 0-8.405-1.791-11.293-4.686l-0-0c-2.895-2.888-4.687-6.881-4.687-11.293 0-0.007 0-0.014 0-0.021v0.001c0-0.006 0-0.013 0-0.020 0-4.412 1.791-8.405 4.686-11.293l0-0c2.888-2.895 6.881-4.687 11.293-4.687 0.007 0 0.014 0 0.021 0h-0.001c0.006 0 0.013 0 0.020 0 4.412 0 8.405 1.791 11.293 4.686l0 0c2.895 2.888 4.687 6.881 4.687 11.293 0 0.007 0 0.014 0 0.021v-0.001z"></path>
<path fill="#fff" style="fill: var(--color6, #fff)" d="M18.422 11.142h1.329v-2.313c-0.56-0.065-1.21-0.102-1.867-0.102-0.024 0-0.047 0-0.071 0h0.004c-1.915 0-3.226 1.204-3.226 3.418v2.036h-2.113v2.585h2.113v6.505h2.591v-6.505h2.027l0.322-2.585h-2.35v-1.782c0-0.747 0.201-1.258 1.243-1.258z"></path>
</symbol>
<symbol id="hand" viewBox="0 0 32 32">
<path d="M26.666 12c-0.492 0-0.952 0.134-1.35 0.368-0.157-1.338-1.283-2.367-2.65-2.368h-0c-0.65 0-1.248 0.236-1.714 0.628-0.474-0.78-1.32-1.294-2.286-1.294-0.491 0-0.952 0.133-1.347 0.365l0.013-0.007v-7.026c0.002-1.47-1.192-2.666-2.664-2.666s-2.668 1.196-2.668 2.666v17.844c0 0.334-0.22 0.508-0.316 0.566-0.099 0.063-0.221 0.101-0.351 0.101-0.108 0-0.211-0.026-0.301-0.073l0.004 0.002-4.282-2.14c-0.367-0.187-0.801-0.296-1.26-0.296-1.56 0-2.825 1.263-2.828 2.822v0.508c0 0.184 0.078 0.36 0.212 0.488l7.696 7.18c1.54 1.445 3.619 2.332 5.904 2.332 0.002 0 0.004 0 0.006 0h4.18c4.785-0.005 8.662-3.881 8.668-8.665v-8.669c0-1.47-1.196-2.666-2.668-2.666zM28 23.334c-0.005 4.048-3.286 7.329-7.334 7.332h-4.18c-1.862 0-3.64-0.7-5.002-1.972l-7.484-6.984v-0.22c0.002-0.823 0.669-1.489 1.492-1.489 0.243 0 0.472 0.058 0.675 0.161l-0.008-0.004 4.28 2.14c0.626 0.314 1.354 0.28 1.946-0.086 0.574-0.355 0.95-0.982 0.95-1.695 0-0.002 0-0.005 0-0.007v0-17.844c0.048-0.698 0.627-1.247 1.333-1.247s1.285 0.548 1.333 1.242l0 0.004v10c0 0.368 0.299 0.667 0.667 0.667s0.667-0.299 0.667-0.667v0-0.666c0.048-0.698 0.627-1.247 1.333-1.247s1.285 0.548 1.333 1.242l0 0.004v0.67c0.021 0.352 0.311 0.63 0.667 0.63 0.357 0 0.648-0.28 0.667-0.632l0-0.002v-0.010c0.051-0.696 0.628-1.242 1.333-1.242 0.708 0 1.288 0.551 1.333 1.248l0 0.004v2c0 0.368 0.299 0.667 0.667 0.667s0.667-0.299 0.667-0.667v0c0.029-0.714 0.614-1.282 1.333-1.282s1.304 0.568 1.333 1.28l0 0.003v8.668z"></path>
</symbol>
<symbol id="instagram" viewBox="0 0 32 32">
<path fill="#fff" style="fill: var(--color6, #fff)" d="M32 16c0 0.006 0 0.013 0 0.020 0 4.412-1.791 8.405-4.686 11.293l-0 0c-2.888 2.895-6.881 4.687-11.293 4.687-0.007 0-0.014 0-0.021 0h0.001c-0.006 0-0.013 0-0.020 0-4.412 0-8.405-1.791-11.293-4.686l-0-0c-2.895-2.888-4.687-6.881-4.687-11.293 0-0.007 0-0.014 0-0.021v0.001c0-0.006 0-0.013 0-0.020 0-4.412 1.791-8.405 4.686-11.293l0-0c2.888-2.895 6.881-4.687 11.293-4.687 0.007 0 0.014 0 0.021 0h-0.001c0.006 0 0.013 0 0.020 0 4.412 0 8.405 1.791 11.293 4.686l0 0c2.895 2.888 4.687 6.881 4.687 11.293 0 0.007 0 0.014 0 0.021v-0.001z"></path>
<path fill="#afb1b8" style="fill: var(--color4, #afb1b8)" d="M23.258 13.004c-0.033-0.773-0.159-1.304-0.337-1.764-0.193-0.505-0.479-0.936-0.841-1.29l-0.001-0.001c-0.354-0.36-0.784-0.645-1.263-0.83l-0.024-0.008c-0.463-0.179-0.991-0.304-1.764-0.337-0.778-0.037-1.025-0.046-3.001-0.046s-2.222 0.009-2.998 0.043c-0.773 0.033-1.304 0.159-1.764 0.338-0.505 0.193-0.936 0.479-1.29 0.84l-0.001 0.001c-0.36 0.354-0.645 0.784-0.83 1.263l-0.008 0.024c-0.18 0.463-0.304 0.991-0.338 1.764-0.037 0.778-0.046 1.025-0.046 3.001s0.009 2.222 0.043 2.998c0.034 0.773 0.159 1.304 0.338 1.764 0.194 0.505 0.48 0.935 0.84 1.29l0.001 0c0.364 0.369 0.804 0.656 1.287 0.838 0.463 0.18 0.992 0.305 1.764 0.338 0.776 0.034 1.023 0.043 2.998 0.043s2.222-0.009 2.998-0.043c0.773-0.033 1.304-0.159 1.764-0.337 0.981-0.386 1.742-1.148 2.12-2.104l0.009-0.025c0.179-0.463 0.304-0.992 0.338-1.764 0.034-0.776 0.042-1.023 0.042-2.998s-0.003-2.222-0.036-2.998zM21.949 18.943c-0.032 0.711-0.151 1.094-0.25 1.349-0.251 0.637-0.745 1.131-1.365 1.376l-0.016 0.006c-0.255 0.099-0.641 0.218-1.349 0.249-0.767 0.034-0.997 0.043-2.938 0.043s-2.174-0.009-2.938-0.043c-0.711-0.031-1.094-0.151-1.35-0.25-0.328-0.122-0.606-0.307-0.834-0.542l-0.001-0.001c-0.235-0.229-0.42-0.508-0.538-0.819l-0.005-0.016c-0.099-0.256-0.218-0.642-0.249-1.35-0.034-0.767-0.043-0.998-0.043-2.938s0.009-2.175 0.043-2.938c0.031-0.711 0.151-1.094 0.249-1.35 0.122-0.328 0.308-0.608 0.545-0.835l0.001-0.001c0.229-0.235 0.509-0.42 0.821-0.537l0.016-0.005c0.255-0.099 0.641-0.218 1.349-0.25 0.767-0.033 0.998-0.042 2.938-0.042 1.943 0 2.174 0.008 2.938 0.042 0.711 0.031 1.094 0.151 1.35 0.25 0.315 0.116 0.602 0.301 0.835 0.543 0.241 0.236 0.426 0.52 0.543 0.836 0.099 0.255 0.218 0.641 0.249 1.349 0.034 0.767 0.043 0.997 0.043 2.938s-0.009 2.167-0.043 2.935z"></path>
<path fill="#afb1b8" style="fill: var(--color4, #afb1b8)" d="M16.027 12.265c-0 0-0 0-0.001 0-2.064 0-3.737 1.673-3.737 3.737s1.673 3.737 3.737 3.737c2.064 0 3.737-1.673 3.737-3.737 0-0 0-0 0-0.001v0c-0-2.064-1.673-3.736-3.737-3.737h-0zM16.027 18.425c-1.339-0-2.424-1.085-2.424-2.424s1.085-2.424 2.424-2.424c0 0 0 0 0 0h-0c1.339 0 2.424 1.085 2.424 2.424s-1.085 2.424-2.424 2.424v0zM20.784 12.117c0 0.482-0.391 0.873-0.873 0.873s-0.873-0.391-0.873-0.873v0c0-0.482 0.391-0.873 0.873-0.873s0.873 0.391 0.873 0.873v0z"></path>
</symbol>
<symbol id="instagramhover" viewBox="0 0 32 32">
<path fill="#2196f3" style="fill: var(--color3, #2196f3)" d="M32 16c0 0.006 0 0.013 0 0.020 0 4.412-1.791 8.405-4.686 11.293l-0 0c-2.888 2.895-6.881 4.687-11.293 4.687-0.007 0-0.014 0-0.021 0h0.001c-0.006 0-0.013 0-0.020 0-4.412 0-8.405-1.791-11.293-4.686l-0-0c-2.895-2.888-4.687-6.881-4.687-11.293 0-0.007 0-0.014 0-0.021v0.001c0-0.006 0-0.013 0-0.020 0-4.412 1.791-8.405 4.686-11.293l0-0c2.888-2.895 6.881-4.687 11.293-4.687 0.007 0 0.014 0 0.021 0h-0.001c0.006 0 0.013 0 0.020 0 4.412 0 8.405 1.791 11.293 4.686l0 0c2.895 2.888 4.687 6.881 4.687 11.293 0 0.007 0 0.014 0 0.021v-0.001z"></path>
<path fill="#fff" style="fill: var(--color6, #fff)" d="M23.258 13.004c-0.033-0.773-0.159-1.304-0.337-1.764-0.193-0.505-0.479-0.936-0.841-1.29l-0.001-0.001c-0.354-0.36-0.784-0.645-1.263-0.83l-0.024-0.008c-0.463-0.179-0.991-0.304-1.764-0.337-0.778-0.037-1.025-0.046-3.001-0.046s-2.222 0.009-2.998 0.043c-0.773 0.033-1.304 0.159-1.764 0.338-0.505 0.193-0.936 0.479-1.29 0.84l-0.001 0.001c-0.36 0.354-0.645 0.784-0.83 1.263l-0.008 0.024c-0.18 0.463-0.304 0.991-0.338 1.764-0.037 0.778-0.046 1.025-0.046 3.001s0.009 2.222 0.043 2.998c0.034 0.773 0.159 1.304 0.338 1.764 0.194 0.505 0.48 0.935 0.84 1.29l0.001 0c0.364 0.369 0.804 0.656 1.287 0.838 0.463 0.18 0.992 0.305 1.764 0.338 0.776 0.034 1.023 0.043 2.998 0.043s2.222-0.009 2.998-0.043c0.773-0.033 1.304-0.159 1.764-0.337 0.981-0.386 1.742-1.148 2.12-2.104l0.009-0.025c0.179-0.463 0.304-0.992 0.338-1.764 0.034-0.776 0.042-1.023 0.042-2.998s-0.003-2.222-0.036-2.998zM21.949 18.943c-0.032 0.711-0.151 1.094-0.25 1.349-0.251 0.637-0.745 1.131-1.365 1.376l-0.016 0.006c-0.255 0.099-0.641 0.218-1.349 0.249-0.767 0.034-0.997 0.043-2.938 0.043s-2.174-0.009-2.938-0.043c-0.711-0.031-1.094-0.151-1.35-0.25-0.328-0.122-0.606-0.307-0.834-0.542l-0.001-0.001c-0.235-0.229-0.42-0.508-0.538-0.819l-0.005-0.016c-0.099-0.256-0.218-0.642-0.249-1.35-0.034-0.767-0.043-0.998-0.043-2.938s0.009-2.175 0.043-2.938c0.031-0.711 0.151-1.094 0.249-1.35 0.122-0.328 0.308-0.608 0.545-0.835l0.001-0.001c0.229-0.235 0.509-0.42 0.821-0.537l0.016-0.005c0.255-0.099 0.641-0.218 1.349-0.25 0.767-0.033 0.998-0.042 2.938-0.042 1.943 0 2.174 0.008 2.938 0.042 0.711 0.031 1.094 0.151 1.35 0.25 0.315 0.116 0.602 0.301 0.835 0.543 0.241 0.236 0.426 0.52 0.543 0.836 0.099 0.255 0.218 0.641 0.249 1.349 0.034 0.767 0.043 0.997 0.043 2.938s-0.009 2.167-0.043 2.935z"></path>
<path fill="#fff" style="fill: var(--color6, #fff)" d="M16.027 12.265c-0 0-0 0-0.001 0-2.064 0-3.737 1.673-3.737 3.737s1.673 3.737 3.737 3.737c2.064 0 3.737-1.673 3.737-3.737 0-0 0-0 0-0.001v0c-0-2.064-1.673-3.736-3.737-3.737h-0zM16.027 18.425c-1.339-0-2.424-1.085-2.424-2.424s1.085-2.424 2.424-2.424c0 0 0 0 0 0h-0c1.339 0 2.424 1.085 2.424 2.424s-1.085 2.424-2.424 2.424v0zM20.784 12.117c0 0.482-0.391 0.873-0.873 0.873s-0.873-0.391-0.873-0.873v0c0-0.482 0.391-0.873 0.873-0.873s0.873 0.391 0.873 0.873v0z"></path>
</symbol>
<symbol id="instagranfooter" viewBox="0 0 32 32">
<path fill="#fff" style="fill: var(--color6, #fff)" opacity="0.1" d="M32 16c0 0.006 0 0.013 0 0.020 0 4.412-1.791 8.405-4.686 11.293l-0 0c-2.888 2.895-6.881 4.687-11.293 4.687-0.007 0-0.014 0-0.021 0h0.001c-0.006 0-0.013 0-0.020 0-4.412 0-8.405-1.791-11.293-4.686l-0-0c-2.895-2.888-4.687-6.881-4.687-11.293 0-0.007 0-0.014 0-0.021v0.001c0-0.006 0-0.013 0-0.020 0-4.412 1.791-8.405 4.686-11.293l0-0c2.888-2.895 6.881-4.687 11.293-4.687 0.007 0 0.014 0 0.021 0h-0.001c0.006 0 0.013 0 0.020 0 4.412 0 8.405 1.791 11.293 4.686l0 0c2.895 2.888 4.687 6.881 4.687 11.293 0 0.007 0 0.014 0 0.021v-0.001z"></path>
<path fill="#fff" style="fill: var(--color6, #fff)" d="M23.258 13.004c-0.033-0.773-0.159-1.304-0.337-1.764-0.193-0.505-0.479-0.936-0.841-1.29l-0.001-0.001c-0.354-0.36-0.784-0.645-1.263-0.83l-0.024-0.008c-0.463-0.179-0.991-0.304-1.764-0.337-0.778-0.037-1.025-0.046-3.001-0.046s-2.222 0.009-2.998 0.043c-0.773 0.033-1.304 0.159-1.764 0.338-0.505 0.193-0.936 0.479-1.29 0.84l-0.001 0.001c-0.36 0.354-0.645 0.784-0.83 1.263l-0.008 0.024c-0.18 0.463-0.304 0.991-0.338 1.764-0.037 0.778-0.046 1.025-0.046 3.001s0.009 2.222 0.043 2.998c0.034 0.773 0.159 1.304 0.338 1.764 0.194 0.505 0.48 0.935 0.84 1.29l0.001 0c0.364 0.369 0.804 0.656 1.287 0.838 0.463 0.18 0.992 0.305 1.764 0.338 0.776 0.034 1.023 0.043 2.998 0.043s2.222-0.009 2.998-0.043c0.773-0.033 1.304-0.159 1.764-0.337 0.981-0.386 1.742-1.148 2.12-2.104l0.009-0.025c0.179-0.463 0.304-0.992 0.338-1.764 0.034-0.776 0.042-1.023 0.042-2.998s-0.003-2.222-0.036-2.998zM21.949 18.943c-0.032 0.711-0.151 1.094-0.25 1.349-0.251 0.637-0.745 1.131-1.365 1.376l-0.016 0.006c-0.255 0.099-0.641 0.218-1.349 0.249-0.767 0.034-0.997 0.043-2.938 0.043s-2.174-0.009-2.938-0.043c-0.711-0.031-1.094-0.151-1.35-0.25-0.328-0.122-0.606-0.307-0.834-0.542l-0.001-0.001c-0.235-0.229-0.42-0.508-0.538-0.819l-0.005-0.016c-0.099-0.256-0.218-0.642-0.249-1.35-0.034-0.767-0.043-0.998-0.043-2.938s0.009-2.175 0.043-2.938c0.031-0.711 0.151-1.094 0.249-1.35 0.122-0.328 0.308-0.608 0.545-0.835l0.001-0.001c0.229-0.235 0.509-0.42 0.821-0.537l0.016-0.005c0.255-0.099 0.641-0.218 1.349-0.25 0.767-0.033 0.998-0.042 2.938-0.042 1.943 0 2.174 0.008 2.938 0.042 0.711 0.031 1.094 0.151 1.35 0.25 0.315 0.116 0.602 0.301 0.835 0.543 0.241 0.236 0.426 0.52 0.543 0.836 0.099 0.255 0.218 0.641 0.249 1.349 0.034 0.767 0.043 0.997 0.043 2.938s-0.009 2.167-0.043 2.935z"></path>
<path fill="#fff" style="fill: var(--color6, #fff)" d="M16.027 12.265c-2.064 0-3.736 1.673-3.737 3.737v0c0 0 0 0 0 0.001 0 2.064 1.673 3.737 3.737 3.737s3.737-1.673 3.737-3.737c0-2.064-1.673-3.737-3.737-3.737-0 0-0 0-0.001 0h0zM16.027 18.425c-1.339-0-2.424-1.085-2.424-2.424s1.085-2.424 2.424-2.424c0 0 0 0 0 0h-0c1.339 0 2.424 1.085 2.424 2.424s-1.085 2.424-2.424 2.424v0zM20.784 12.117c0 0.482-0.391 0.873-0.873 0.873s-0.873-0.391-0.873-0.873v0c0-0.482 0.391-0.873 0.873-0.873s0.873 0.391 0.873 0.873v0z"></path>
</symbol>
<symbol id="linkedin" viewBox="0 0 32 32">
<path fill="#fff" style="fill: var(--color6, #fff)" d="M32 16c0 0.006 0 0.013 0 0.020 0 4.412-1.791 8.405-4.686 11.293l-0 0c-2.888 2.895-6.881 4.687-11.293 4.687-0.007 0-0.014 0-0.021 0h0.001c-0.006 0-0.013 0-0.020 0-4.412 0-8.405-1.791-11.293-4.686l-0-0c-2.895-2.888-4.687-6.881-4.687-11.293 0-0.007 0-0.014 0-0.021v0.001c0-0.006 0-0.013 0-0.020 0-4.412 1.791-8.405 4.686-11.293l0-0c2.888-2.895 6.881-4.687 11.293-4.687 0.007 0 0.014 0 0.021 0h-0.001c0.006 0 0.013 0 0.020 0 4.412 0 8.405 1.791 11.293 4.686l0 0c2.895 2.888 4.687 6.881 4.687 11.293 0 0.007 0 0.014 0 0.021v-0.001z"></path>
<path fill="#afb1b8" style="fill: var(--color4, #afb1b8)" d="M23.269 23.273h0.004v-5.335c0-2.609-0.561-4.62-3.612-4.62-1.467 0-2.451 0.804-2.853 1.567h-0.042v-1.324h-2.893v9.711h3.012v-4.808c0-1.266 0.24-2.491 1.808-2.491 1.545 0 1.568 1.445 1.568 2.572v4.728h3.009zM8.967 13.562h3.016v9.711h-3.016v-9.711zM10.474 8.727c-0.965 0-1.747 0.782-1.747 1.747v0c0 0.964 0.783 1.763 1.747 1.763s1.746-0.799 1.746-1.763c-0-0.964-0.782-1.746-1.746-1.747h-0z"></path>
</symbol>
<symbol id="linkedinfooter" viewBox="0 0 32 32">
<path fill="#fff" style="fill: var(--color6, #fff)" opacity="0.1" d="M32 16c0 0.006 0 0.013 0 0.020 0 4.412-1.791 8.405-4.686 11.293l-0 0c-2.888 2.895-6.881 4.687-11.293 4.687-0.007 0-0.014 0-0.021 0h0.001c-0.006 0-0.013 0-0.020 0-4.412 0-8.405-1.791-11.293-4.686l-0-0c-2.895-2.888-4.687-6.881-4.687-11.293 0-0.007 0-0.014 0-0.021v0.001c0-0.006 0-0.013 0-0.020 0-4.412 1.791-8.405 4.686-11.293l0-0c2.888-2.895 6.881-4.687 11.293-4.687 0.007 0 0.014 0 0.021 0h-0.001c0.006 0 0.013 0 0.020 0 4.412 0 8.405 1.791 11.293 4.686l0 0c2.895 2.888 4.687 6.881 4.687 11.293 0 0.007 0 0.014 0 0.021v-0.001z"></path>
<path fill="#fff" style="fill: var(--color6, #fff)" d="M23.269 23.273h0.004v-5.335c0-2.609-0.562-4.62-3.613-4.62-1.466 0-2.451 0.804-2.852 1.568h-0.042v-1.324h-2.893v9.711h3.012v-4.808c0-1.266 0.24-2.491 1.808-2.491 1.545 0 1.567 1.445 1.567 2.572v4.728h3.009zM8.967 13.562h3.016v9.711h-3.016v-9.711zM10.474 8.727c-0.965 0-1.747 0.782-1.747 1.747v0c0 0.964 0.783 1.763 1.747 1.763s1.746-0.799 1.746-1.763c-0-0.964-0.782-1.746-1.746-1.747h-0z"></path>
</symbol>
<symbol id="smartphone" viewBox="0 0 32 32">
<path fill="#757575" style="fill: var(--color5, #757575)" d="M23 0h-14c-1.654 0-3 1.346-3 3v26c0 1.654 1.346 3 3 3h14c1.654 0 3-1.346 3-3v-26c0-1.654-1.346-3-3-3zM9 2h14c0.552 0 1 0.448 1 1v0 21h-16v-21c0-0.552 0.448-1 1-1v0zM23 30h-14c-0.552 0-1-0.448-1-1v0-3h16v3c0 0.552-0.448 1-1 1v0z"></path>
<path fill="#757575" style="fill: var(--color5, #757575)" d="M10.708 27.478c0.18 0.163 0.293 0.399 0.293 0.66s-0.113 0.497-0.292 0.659l-0.001 0.001c-0.186 0.17-0.435 0.275-0.708 0.275s-0.522-0.104-0.709-0.275l0.001 0.001c-0.18-0.163-0.293-0.399-0.293-0.66s0.113-0.497 0.292-0.659l0.001-0.001c0.186-0.17 0.435-0.275 0.708-0.275s0.522 0.104 0.709 0.275l-0.001-0.001z"></path>
</symbol>
<symbol id="twitter" viewBox="0 0 32 32">
<path fill="#fff" style="fill: var(--color6, #fff)" d="M32 16c0 0.006 0 0.013 0 0.020 0 4.412-1.791 8.405-4.686 11.293l-0 0c-2.888 2.895-6.881 4.687-11.293 4.687-0.007 0-0.014 0-0.021 0h0.001c-0.006 0-0.013 0-0.020 0-4.412 0-8.405-1.791-11.293-4.686l-0-0c-2.895-2.888-4.687-6.881-4.687-11.293 0-0.007 0-0.014 0-0.021v0.001c0-0.006 0-0.013 0-0.020 0-4.412 1.791-8.405 4.686-11.293l0-0c2.888-2.895 6.881-4.687 11.293-4.687 0.007 0 0.014 0 0.021 0h-0.001c0.006 0 0.013 0 0.020 0 4.412 0 8.405 1.791 11.293 4.686l0 0c2.895 2.888 4.687 6.881 4.687 11.293 0 0.007 0 0.014 0 0.021v-0.001z"></path>
<path fill="#afb1b8" style="fill: var(--color4, #afb1b8)" d="M23.273 11.49c-0.5 0.224-1.080 0.39-1.688 0.467l-0.031 0.003c0.618-0.371 1.083-0.945 1.306-1.627l0.006-0.021c-0.544 0.328-1.178 0.579-1.853 0.715l-0.038 0.006c-0.545-0.582-1.319-0.945-2.177-0.945-1.646 0-2.981 1.335-2.981 2.981 0 0.001 0 0.002 0 0.003v-0c0 0.236 0.020 0.464 0.070 0.68-2.479-0.121-4.673-1.309-6.147-3.119-0.256 0.432-0.407 0.952-0.407 1.508v0c0 1.033 0.531 1.948 1.324 2.478-0.496-0.014-0.958-0.148-1.362-0.375l0.015 0.008v0.033c0.001 1.439 1.017 2.64 2.37 2.927l0.020 0.003c-0.227 0.062-0.487 0.098-0.756 0.098-0.009 0-0.018-0-0.028-0h0.001c-0.014 0-0.030 0-0.047 0-0.183 0-0.362-0.019-0.534-0.054l0.017 0.003c0.386 1.181 1.483 2.049 2.786 2.078-1.006 0.793-2.292 1.271-3.69 1.271-0.003 0-0.005 0-0.008 0h0c-0.012 0-0.026 0-0.039 0-0.238 0-0.472-0.015-0.701-0.044l0.027 0.003c1.285 0.839 2.858 1.338 4.547 1.338 0.010 0 0.019-0 0.029-0h-0.002c5.487 0 8.487-4.545 8.487-8.486 0-0.131-0.004-0.259-0.011-0.385 0.59-0.425 1.087-0.938 1.481-1.526l0.014-0.021z"></path>
</symbol>
<symbol id="twitterfooter" viewBox="0 0 32 32">
<path fill="#2196f3" style="fill: var(--color3, #2196f3)" d="M32 16c0 0.006 0 0.013 0 0.020 0 4.412-1.791 8.405-4.686 11.293l-0 0c-2.888 2.895-6.881 4.687-11.293 4.687-0.007 0-0.014 0-0.021 0h0.001c-0.006 0-0.013 0-0.020 0-4.412 0-8.405-1.791-11.293-4.686l-0-0c-2.895-2.888-4.687-6.881-4.687-11.293 0-0.007 0-0.014 0-0.021v0.001c0-0.006 0-0.013 0-0.020 0-4.412 1.791-8.405 4.686-11.293l0-0c2.888-2.895 6.881-4.687 11.293-4.687 0.007 0 0.014 0 0.021 0h-0.001c0.006 0 0.013 0 0.020 0 4.412 0 8.405 1.791 11.293 4.686l0 0c2.895 2.888 4.687 6.881 4.687 11.293 0 0.007 0 0.014 0 0.021v-0.001z"></path>
<path fill="#fff" style="fill: var(--color6, #fff)" d="M23.273 11.49c-0.5 0.224-1.080 0.39-1.688 0.467l-0.031 0.003c0.618-0.371 1.083-0.945 1.306-1.627l0.006-0.021c-0.544 0.328-1.178 0.579-1.853 0.715l-0.038 0.006c-0.545-0.582-1.319-0.945-2.177-0.945-1.646 0-2.981 1.335-2.981 2.981 0 0.001 0 0.002 0 0.003v-0c0 0.236 0.020 0.464 0.070 0.68-2.479-0.121-4.673-1.309-6.147-3.119-0.256 0.432-0.407 0.952-0.407 1.508v0c0 1.033 0.531 1.948 1.324 2.478-0.496-0.014-0.958-0.148-1.362-0.375l0.015 0.008v0.033c0.001 1.439 1.017 2.64 2.37 2.927l0.020 0.003c-0.227 0.062-0.487 0.098-0.756 0.098-0.009 0-0.018-0-0.028-0h0.001c-0.014 0-0.030 0-0.047 0-0.183 0-0.362-0.019-0.534-0.054l0.017 0.003c0.386 1.181 1.483 2.049 2.786 2.078-1.006 0.793-2.292 1.271-3.69 1.271-0.003 0-0.005 0-0.008 0h0c-0.012 0-0.026 0-0.039 0-0.238 0-0.472-0.015-0.701-0.044l0.027 0.003c1.285 0.839 2.858 1.338 4.547 1.338 0.010 0 0.019-0 0.029-0h-0.002c5.487 0 8.487-4.545 8.487-8.486 0-0.131-0.004-0.259-0.011-0.385 0.59-0.425 1.087-0.938 1.481-1.526l0.014-0.021z"></path>
</symbol>
</defs>
</svg>
